<svg width="462" height="236" viewBox="0 0 462 236" fill="none" xmlns="http://www.w3.org/2000/svg">
<g clip-path="url(#clip0_3192_131)">
<rect width="462" height="236" fill="#618794"/>
<mask id="mask0_3192_131" style="mask-type:alpha" maskUnits="userSpaceOnUse" x="0" y="0" width="462" height="188">
<rect x="6.10352e-05" width="462" height="188" fill="#D9D9D9"/>
</mask>
<g mask="url(#mask0_3192_131)">
<g opacity="0.24">
<path fill-rule="evenodd" clip-rule="evenodd" d="M110.776 24.713C105.903 28.3399 100.357 32.468 94.3293 34.0823C88.2836 35.7015 81.3435 34.9074 75.254 34.2106C74.4199 34.1151 73.6017 34.0215 72.804 33.9362C65.6659 33.1726 59.9834 33.0142 55.7309 35.4825C51.4701 37.9556 48.7404 43.0074 45.823 49.5907C45.496 50.3287 45.1656 51.087 44.8302 51.8566C43.7496 54.3363 42.6179 56.9333 41.3848 59.3458C39.755 62.5346 37.8117 65.689 35.2504 68.2503C32.6903 70.8104 29.5316 72.7606 26.3371 74.399C23.9074 75.6451 21.2924 76.7893 18.7963 77.8814C18.0368 78.2136 17.2884 78.5411 16.5596 78.8651C9.95124 81.8032 4.91074 84.53 2.48573 88.7253C0.0577106 92.9259 0.191309 98.7111 0.929171 105.925C1.01465 106.761 1.10778 107.617 1.20226 108.486C1.49315 111.161 1.79681 113.952 1.92918 116.625C2.10591 120.192 2.00341 123.879 1.08312 127.326C0.160501 130.783 -1.59409 134.006 -3.53083 136.98C-4.95801 139.171 -6.59171 141.38 -8.1575 143.498C-8.69591 144.226 -9.22629 144.943 -9.73748 145.645C-13.9564 151.439 -16.9799 156.398 -16.9799 161.474C-16.9799 166.545 -13.9909 171.404 -9.78651 177.147C-9.30234 177.809 -8.79963 178.484 -8.28691 179.173C-4.65997 184.046 -0.531889 189.592 1.08237 195.62C2.70155 201.665 1.90743 208.605 1.21065 214.695C1.11521 215.529 1.02159 216.347 0.936247 217.145C0.172626 224.283 0.0142307 229.965 2.48255 234.218C4.95567 238.479 10.0074 241.208 16.5908 244.126C17.3289 244.453 18.0873 244.783 18.8571 245.119C21.3366 246.199 23.9334 247.331 26.3459 248.564C29.5347 250.194 32.6891 252.137 35.2504 254.698C37.8105 257.259 39.7607 260.417 41.3991 263.612C42.6452 266.041 43.7893 268.656 44.8814 271.153C45.2137 271.912 45.5411 272.66 45.8652 273.389C48.8032 279.998 51.53 285.038 55.7254 287.463C59.9259 289.891 65.7112 289.758 72.9255 289.02C73.7613 288.934 74.6177 288.841 75.4864 288.747C78.1608 288.456 80.9526 288.152 83.6247 288.02C87.1925 287.843 90.8788 287.945 94.3265 288.866C97.7829 289.788 101.007 291.543 103.98 293.48C106.171 294.907 108.38 296.54 110.498 298.106C111.226 298.645 111.943 299.175 112.646 299.686C118.439 303.905 123.399 306.929 128.474 306.929C133.545 306.929 138.404 303.94 144.147 299.735C144.809 299.251 145.484 298.749 146.173 298.236C151.046 294.609 156.592 290.481 162.62 288.866C168.665 287.247 175.605 288.041 181.695 288.738C182.529 288.834 183.347 288.927 184.145 289.013C191.283 289.776 196.965 289.935 201.218 287.466C205.479 284.993 208.209 279.941 211.126 273.358C211.453 272.62 211.783 271.862 212.119 271.092C213.199 268.613 214.331 266.016 215.564 263.603C217.194 260.414 219.137 257.26 221.699 254.698C224.26 252.137 227.415 250.195 230.605 248.567C233.013 247.337 235.607 246.208 238.083 245.13C238.856 244.794 239.618 244.462 240.359 244.134C246.941 241.221 251.991 238.491 254.464 234.222C256.891 230.021 256.758 224.237 256.02 217.023C255.934 216.187 255.841 215.331 255.747 214.462C255.456 211.788 255.152 208.996 255.02 206.324C254.843 202.756 254.945 199.07 255.866 195.622C256.788 192.166 258.543 188.942 260.48 185.969C261.907 183.778 263.54 181.569 265.106 179.451C265.645 178.723 266.175 178.005 266.686 177.303C270.905 171.51 273.929 166.55 273.929 161.474C273.929 156.404 270.94 151.545 266.735 145.802C266.251 145.14 265.749 144.465 265.236 143.776C261.609 138.903 257.481 133.357 255.867 127.329C254.247 121.284 255.041 114.343 255.738 108.254C255.834 107.42 255.927 106.602 256.013 105.804C256.776 98.6658 256.935 92.9833 254.466 88.7308C251.993 84.47 246.941 81.7403 240.358 78.823C239.62 78.4959 238.862 78.1655 238.092 77.8301C235.612 76.7495 233.016 75.6178 230.603 74.3848C227.414 72.755 224.26 70.8117 221.699 68.2503C219.138 65.6903 217.188 62.5315 215.55 59.3371C214.304 56.9072 213.159 54.2921 212.067 51.7958C211.735 51.0365 211.408 50.2882 211.084 49.5595C208.146 42.9512 205.419 37.9107 201.224 35.4857C197.023 33.0576 191.238 33.1912 184.023 33.9291C183.188 34.0146 182.331 34.1077 181.463 34.2022C178.788 34.4931 175.996 34.7968 173.324 34.9291C169.756 35.1058 166.07 35.0033 162.622 34.0831C159.166 33.1604 155.942 31.4058 152.969 29.4691C150.778 28.042 148.569 26.4083 146.451 24.8425C145.723 24.3041 145.005 23.7737 144.303 23.2625C138.51 19.0435 133.55 16.02 128.474 16.02C123.404 16.02 118.545 19.009 112.802 23.2134C112.14 23.6976 111.465 24.2003 110.776 24.713ZM108.655 17.5489C114.22 13.4756 120.816 9 128.474 9C136.128 9 142.822 13.4996 148.436 17.5876C149.234 18.1687 150.01 18.7427 150.772 19.3062C152.838 20.8332 154.799 22.2831 156.801 23.587C159.512 25.3533 162.016 26.6554 164.433 27.3005C166.859 27.948 169.71 28.0795 172.977 27.9177C175.424 27.7965 177.919 27.5253 180.538 27.2407C181.446 27.142 182.368 27.0417 183.309 26.9455C190.223 26.2385 198.29 25.6817 204.737 29.4079C211.188 33.1371 214.686 40.3816 217.498 46.7076C217.862 47.5252 218.214 48.3309 218.562 49.1247C219.635 51.5765 220.658 53.9142 221.796 56.1334C223.29 59.0456 224.847 61.4707 226.662 63.2864C228.477 65.1009 230.895 66.6501 233.798 68.1339C236 69.2593 238.316 70.2691 240.749 71.3294C241.554 71.6803 242.372 72.0369 243.202 72.4049C249.53 75.2089 256.763 78.7036 260.538 85.2068C264.317 91.7182 263.727 99.6896 262.993 106.551C262.901 107.407 262.807 108.249 262.715 109.077C262.011 115.38 261.4 120.854 262.648 125.513C263.887 130.142 267.109 134.496 270.838 139.536C271.35 140.229 271.872 140.934 272.4 141.655C276.473 147.22 280.949 153.816 280.949 161.474C280.949 169.128 276.449 175.822 272.361 181.436C271.78 182.234 271.206 183.01 270.643 183.772C269.116 185.838 267.666 187.799 266.362 189.801C264.596 192.512 263.293 195.016 262.648 197.433C262.001 199.859 261.869 202.71 262.031 205.977C262.152 208.424 262.424 210.919 262.708 213.538C262.807 214.446 262.907 215.368 263.003 216.309C263.71 223.223 264.267 231.29 260.541 237.737L260.539 237.739C256.765 244.256 249.53 247.751 243.201 250.553C242.366 250.923 241.544 251.281 240.735 251.633C238.307 252.69 235.995 253.697 233.796 254.819C230.893 256.301 228.476 257.848 226.662 259.662C224.848 261.477 223.299 263.895 221.815 266.798C220.69 269 219.68 271.317 218.619 273.749C218.268 274.554 217.912 275.372 217.544 276.202C214.74 282.53 211.245 289.763 204.742 293.538C198.231 297.317 190.259 296.727 183.398 295.993C182.542 295.901 181.7 295.807 180.872 295.715C174.569 295.011 169.095 294.4 164.436 295.648C159.807 296.887 155.453 300.109 150.413 303.838C149.72 304.35 149.015 304.872 148.294 305.4C142.729 309.473 136.133 313.949 128.474 313.949C120.821 313.949 114.127 309.449 108.513 305.361C107.715 304.78 106.939 304.206 106.176 303.642C104.111 302.116 102.15 300.666 100.148 299.362C97.4365 297.595 94.933 296.293 92.516 295.648C90.0903 295.001 87.2392 294.869 83.972 295.031C81.5251 295.152 79.0298 295.423 76.4106 295.708C75.5029 295.807 74.5804 295.907 73.6398 296.003C66.7263 296.71 58.6588 297.267 52.2123 293.541C45.7607 289.812 42.2631 282.567 39.4506 276.241C39.0871 275.424 38.7344 274.618 38.3869 273.824C37.3139 271.372 36.2908 269.035 35.1527 266.815C33.6591 263.903 32.1022 261.478 30.2865 259.662C28.472 257.848 26.0543 256.299 23.1511 254.815C20.9491 253.689 18.6324 252.68 16.1999 251.619C15.3949 251.268 14.5771 250.912 13.7467 250.544C7.4191 247.74 0.185856 244.245 -3.58883 237.742C-7.36831 231.231 -6.7779 223.259 -6.04392 216.398C-5.95231 215.542 -5.8583 214.7 -5.76588 213.872C-5.06209 207.569 -4.45088 202.095 -5.69864 197.436C-6.93843 192.807 -10.1597 188.453 -13.8888 183.413C-14.4012 182.72 -14.9232 182.015 -15.451 181.294C-19.5243 175.729 -23.9999 169.133 -23.9999 161.474C-23.9999 153.821 -19.5004 147.127 -15.4123 141.513C-14.8312 140.715 -14.2572 139.939 -13.6937 139.176C-12.1667 137.111 -10.7169 135.15 -9.41293 133.148C-7.64661 130.436 -6.34458 127.933 -5.6994 125.516C-5.05189 123.09 -4.92039 120.239 -5.08222 116.972C-5.20343 114.525 -5.47462 112.03 -5.75928 109.411C-5.85792 108.503 -5.95819 107.58 -6.0544 106.64C-6.76149 99.7263 -7.31819 91.6587 -3.592 85.2123C0.137182 78.7606 7.38167 75.263 13.7077 72.4505C14.5253 72.087 15.3312 71.7343 16.1251 71.3868C18.5767 70.3139 20.9144 69.2907 23.1335 68.1526C26.0457 66.659 28.4708 65.1022 30.2865 63.2864C32.101 61.472 33.6501 59.0542 35.134 56.151C36.2594 53.9491 37.2692 51.6325 38.3295 49.2001C38.6805 48.395 39.0369 47.5772 39.405 46.7466C42.209 40.419 45.7036 33.1858 52.2068 29.4111C58.7183 25.6316 66.6897 26.222 73.5507 26.956C74.4071 27.0476 75.2491 27.1416 76.0768 27.2341C82.3801 27.9378 87.8543 28.5491 92.5132 27.3013C97.1423 26.0615 101.496 22.8402 106.536 19.1112C107.229 18.5987 107.934 18.0767 108.655 17.5489Z" fill="white"/>
<path fill-rule="evenodd" clip-rule="evenodd" d="M128.451 73.8647C80.0561 73.8647 40.8414 113.079 40.8414 161.474C40.8414 209.869 80.0561 249.084 128.451 249.084C176.845 249.084 216.061 209.846 216.061 161.474C216.061 153.971 215.137 146.706 213.363 139.789L212.491 136.389L219.29 134.645L220.163 138.045C222.085 145.542 223.081 153.393 223.081 161.474C223.081 213.722 180.723 256.104 128.451 256.104C76.179 256.104 33.8214 213.746 33.8214 161.474C33.8214 109.202 76.179 66.8447 128.451 66.8447C161.164 66.8447 190.01 83.4487 206.992 108.69L208.604 111.087L117.922 201.867L71.2115 155.156L76.1754 150.192L117.92 191.937L199.521 110.246C183.612 88.1961 157.699 73.8647 128.451 73.8647Z" fill="white"/>
</g>
</g>
<rect y="188" width="462" height="68.6038" fill="white"/>
<g clip-path="url(#clip1_3192_131)">
<path d="M329.537 13.6191C283.526 13.6191 249.845 25.6597 249.845 34.4934V116.021H410.013L409.229 34.4934C409.229 25.6597 375.549 13.6191 329.537 13.6191Z" fill="#1B3139"/>
<path d="M247.683 125.665V183.506C247.683 184.611 248.236 185.532 249.157 186.085L330.023 232.873V125.665H247.683Z" fill="#1F5262"/>
<path d="M316.392 203.049C316.392 195.865 322.287 189.97 329.471 189.97V216.312C322.287 216.312 316.392 210.417 316.392 203.049Z" fill="#FF5F46"/>
<path d="M302.208 204.338C302.208 189.233 314.366 177.076 329.471 177.076C329.471 175.97 329.471 175.234 329.471 175.234V143.918H315.471V154.05C312.155 154.971 309.208 156.26 306.077 157.918L298.892 150.734L279.367 170.444L286.551 177.628C284.893 180.576 283.603 183.707 282.682 186.839H272.551V198.628L306.077 217.97C303.682 213.917 302.208 209.312 302.208 204.338Z" fill="#628794"/>
<path d="M329.655 232.873L410.338 186.085C411.259 185.532 411.811 184.611 411.811 183.506V125.665H329.655V232.873Z" fill="#010101"/>
<g clip-path="url(#clip2_3192_131)">
<path d="M382.678 150.789C381.02 148.763 379.178 146.921 376.784 145.816C374.573 144.71 371.994 143.974 369.415 143.974C366.836 143.974 364.442 144.526 362.047 145.816C359.836 146.921 357.81 148.579 356.152 150.789H382.678Z" fill="#1F5262"/>
<path d="M329.627 150.789C331.285 152.999 333.311 154.657 335.521 155.946C337.916 157.236 340.311 157.788 342.89 157.788C345.468 157.788 348.047 157.236 350.258 155.946C352.653 154.657 354.679 152.999 356.152 150.789H329.627V150.789Z" fill="#1F5262"/>
<path d="M382.678 150.789C384.336 152.999 386.362 154.657 388.573 155.946C390.968 157.236 393.362 157.788 395.941 157.788C398.52 157.788 401.099 157.236 403.309 155.946C405.704 154.657 407.73 152.999 409.204 150.789H382.678V150.789Z" fill="#1F5262"/>
<path d="M382.678 164.051C381.02 161.841 379.178 160.183 376.784 159.078C374.389 157.973 371.994 157.236 369.415 157.236C366.836 157.236 364.442 157.788 362.047 159.078C359.836 160.183 357.81 162.025 356.152 164.051H382.678Z" fill="#628794"/>
<path d="M329.627 164.052C331.285 166.078 333.311 167.736 335.521 168.841C337.916 169.946 340.311 170.499 342.89 170.499C345.468 170.499 348.047 169.946 350.258 168.841C352.653 167.736 354.679 166.078 356.152 164.052H329.627Z" fill="#628794"/>
<path d="M382.678 164.052C384.336 166.078 386.362 167.736 388.573 168.841C390.968 169.946 393.362 170.499 395.941 170.499C398.52 170.499 401.099 169.946 403.309 168.841C405.704 167.736 407.73 166.078 409.204 164.052H382.678Z" fill="#628794"/>
<path d="M382.678 177.13C381.02 175.104 379.178 173.262 376.784 172.157C374.573 171.051 371.994 170.314 369.415 170.314C366.836 170.314 364.442 170.867 362.047 172.157C359.836 173.262 357.81 174.92 356.152 177.13H382.678Z" fill="#1F5262"/>
<path d="M329.627 177.131C331.285 179.341 333.311 180.999 335.521 182.289C337.732 183.578 340.311 184.131 342.89 184.131C345.468 184.131 348.047 183.578 350.258 182.289C352.653 180.999 354.679 179.341 356.152 177.131H329.627Z" fill="#1F5262"/>
<path d="M382.678 177.131C384.336 179.341 386.362 180.999 388.573 182.289C390.968 183.578 393.362 184.131 395.941 184.131C398.52 184.131 401.099 183.578 403.309 182.289C405.704 180.999 407.73 179.341 409.204 177.131H382.678Z" fill="#1F5262"/>
<path d="M382.678 190.393C381.02 188.183 379.178 186.525 376.784 185.42C374.389 184.314 371.994 183.578 369.415 183.578C366.836 183.578 364.442 184.13 362.047 185.42C359.836 186.525 357.81 188.367 356.152 190.393H382.678Z" fill="#628794"/>
<path d="M329.627 190.393C331.285 192.419 333.311 194.077 335.521 195.182C337.916 196.288 340.311 196.84 342.89 196.84C345.468 196.84 348.047 196.288 350.258 195.182C352.653 194.077 354.679 192.419 356.152 190.393H329.627Z" fill="#628794"/>
<path d="M382.678 190.393C384.336 192.419 386.362 194.077 388.573 195.182C388.941 195.367 389.31 195.551 389.678 195.735L398.704 190.393H382.678V190.393Z" fill="#628794"/>
<path d="M380.652 201.261C379.547 200.156 378.257 199.235 376.784 198.498C374.573 197.393 371.994 196.656 369.415 196.656C366.836 196.656 364.442 197.209 362.047 198.498C359.836 199.604 357.81 201.261 356.152 203.472H376.599L380.652 201.261Z" fill="#1F5262"/>
<path d="M329.627 203.472C331.285 205.683 333.311 207.341 335.521 208.63C337.916 209.919 340.311 210.472 342.89 210.472C345.468 210.472 348.047 209.919 350.258 208.63C352.653 207.341 354.679 205.683 356.152 203.472H329.627Z" fill="#1F5262"/>
<path d="M329.627 216.735C331.285 218.761 333.311 220.419 335.521 221.524C337.732 222.629 340.311 223.182 342.89 223.182C343.258 223.182 343.442 223.182 343.811 223.182L354.679 216.735H329.627Z" fill="#628794"/>
</g>
<rect width="163.448" height="44.1428" transform="translate(247.903 100.015)" fill="#1B3139"/>
<path d="M283.808 120.086V111.735H285.812C287.156 111.735 288.155 112.108 288.807 112.856C289.459 113.596 289.785 114.614 289.785 115.91C289.785 117.207 289.459 118.229 288.807 118.976C288.155 119.716 287.156 120.086 285.812 120.086H283.808ZM285.072 118.917H285.764C286.735 118.917 287.435 118.646 287.864 118.105C288.294 117.557 288.508 116.825 288.508 115.91C288.508 114.996 288.294 114.268 287.864 113.727C287.435 113.178 286.735 112.904 285.764 112.904H285.072V118.917ZM293.324 120.229C292.854 120.229 292.461 120.15 292.143 119.99C291.824 119.823 291.586 119.605 291.427 119.334C291.268 119.056 291.188 118.754 291.188 118.428C291.188 117.847 291.399 117.394 291.82 117.068C292.25 116.741 292.854 116.578 293.634 116.578H295.161V116.447C295.161 115.556 294.747 115.111 293.92 115.111C293.578 115.111 293.288 115.186 293.049 115.338C292.819 115.481 292.664 115.715 292.584 116.041H291.319C291.383 115.421 291.649 114.932 292.119 114.574C292.596 114.208 293.196 114.025 293.92 114.025C294.795 114.025 295.431 114.24 295.829 114.669C296.227 115.099 296.426 115.692 296.426 116.447V120.086H295.352L295.245 119.215H295.161C294.986 119.493 294.767 119.732 294.505 119.931C294.242 120.13 293.849 120.229 293.324 120.229ZM293.562 119.167C294.079 119.167 294.465 119.012 294.72 118.702C294.982 118.384 295.125 117.982 295.149 117.497H293.765C293.312 117.497 292.99 117.573 292.799 117.724C292.616 117.867 292.524 118.07 292.524 118.332C292.524 118.595 292.616 118.801 292.799 118.953C292.99 119.096 293.244 119.167 293.562 119.167ZM301.658 120.086C301.078 120.086 300.617 119.947 300.275 119.668C299.933 119.382 299.762 118.877 299.762 118.153V115.242H298.27V114.168H299.153C299.559 114.168 299.797 113.97 299.869 113.572L300.048 112.617H301.026V114.168H303.365V115.242H301.026V118.129C301.026 118.44 301.094 118.658 301.229 118.786C301.372 118.905 301.615 118.964 301.957 118.964H303.341V120.086H301.658ZM307.631 120.229C307.162 120.229 306.768 120.15 306.45 119.99C306.132 119.823 305.893 119.605 305.734 119.334C305.575 119.056 305.495 118.754 305.495 118.428C305.495 117.847 305.706 117.394 306.128 117.068C306.557 116.741 307.162 116.578 307.941 116.578H309.468V116.447C309.468 115.556 309.055 115.111 308.228 115.111C307.886 115.111 307.595 115.186 307.357 115.338C307.126 115.481 306.971 115.715 306.891 116.041H305.627C305.69 115.421 305.957 114.932 306.426 114.574C306.903 114.208 307.504 114.025 308.228 114.025C309.102 114.025 309.739 114.24 310.136 114.669C310.534 115.099 310.733 115.692 310.733 116.447V120.086H309.659L309.552 119.215H309.468C309.293 119.493 309.075 119.732 308.812 119.931C308.55 120.13 308.156 120.229 307.631 120.229ZM307.87 119.167C308.387 119.167 308.772 119.012 309.027 118.702C309.289 118.384 309.433 117.982 309.456 117.497H308.072C307.619 117.497 307.297 117.573 307.106 117.724C306.923 117.867 306.832 118.07 306.832 118.332C306.832 118.595 306.923 118.801 307.106 118.953C307.297 119.096 307.551 119.167 307.87 119.167ZM319.85 120.086V111.735H325.183V112.868H321.115V115.302H324.825V116.423H321.115V118.953H325.183V120.086H319.85ZM326.98 120.086V114.168H328.078L328.185 115.051H328.245C328.404 114.765 328.65 114.522 328.985 114.324C329.319 114.125 329.704 114.025 330.142 114.025C330.866 114.025 331.41 114.244 331.776 114.681C332.142 115.119 332.325 115.763 332.325 116.614V120.086H331.06V116.769C331.06 116.276 330.957 115.894 330.75 115.624C330.543 115.354 330.217 115.218 329.772 115.218C329.335 115.218 328.969 115.365 328.674 115.66C328.388 115.954 328.245 116.38 328.245 116.936V120.086H326.98ZM336.651 118.38C336.285 118.38 335.947 118.32 335.637 118.201L335.339 118.559C335.243 118.678 335.216 118.793 335.255 118.905C335.303 119.008 335.41 119.06 335.577 119.06H337.14C337.832 119.06 338.389 119.207 338.811 119.501C339.24 119.788 339.455 120.229 339.455 120.826C339.455 121.199 339.359 121.537 339.169 121.84C338.986 122.15 338.687 122.396 338.274 122.579C337.868 122.762 337.331 122.854 336.663 122.854C335.82 122.854 335.14 122.695 334.623 122.377C334.114 122.066 333.859 121.597 333.859 120.969C333.859 120.746 333.911 120.539 334.015 120.348C334.126 120.165 334.269 119.998 334.444 119.847C334.229 119.688 334.098 119.466 334.05 119.179C334.011 118.885 334.098 118.603 334.313 118.332L334.838 117.664C334.464 117.266 334.277 116.777 334.277 116.197C334.277 115.807 334.368 115.449 334.551 115.123C334.742 114.789 335.013 114.522 335.363 114.324C335.721 114.125 336.15 114.025 336.651 114.025C336.977 114.025 337.28 114.073 337.558 114.168H339.789V115.004L338.751 115.063V115.171C338.918 115.481 339.002 115.823 339.002 116.197C339.002 116.586 338.906 116.948 338.715 117.282C338.532 117.616 338.266 117.883 337.916 118.082C337.566 118.28 337.144 118.38 336.651 118.38ZM336.651 117.366C337.001 117.366 337.287 117.262 337.51 117.056C337.741 116.849 337.856 116.562 337.856 116.197C337.856 115.847 337.741 115.568 337.51 115.361C337.287 115.155 337.001 115.051 336.651 115.051C336.293 115.051 335.999 115.155 335.768 115.361C335.546 115.568 335.434 115.847 335.434 116.197C335.434 116.562 335.546 116.849 335.768 117.056C335.999 117.262 336.293 117.366 336.651 117.366ZM335.053 120.873C335.053 121.191 335.204 121.426 335.506 121.577C335.816 121.728 336.202 121.804 336.663 121.804C337.156 121.804 337.546 121.72 337.832 121.553C338.119 121.386 338.262 121.152 338.262 120.849C338.262 120.595 338.158 120.392 337.952 120.241C337.745 120.098 337.395 120.026 336.902 120.026H335.506C335.204 120.265 335.053 120.547 335.053 120.873ZM343.817 113.262C343.538 113.262 343.304 113.174 343.113 112.999C342.93 112.816 342.838 112.594 342.838 112.331C342.838 112.069 342.93 111.85 343.113 111.675C343.304 111.5 343.538 111.412 343.817 111.412C344.103 111.412 344.338 111.5 344.521 111.675C344.712 111.85 344.807 112.069 344.807 112.331C344.807 112.594 344.712 112.816 344.521 112.999C344.338 113.174 344.103 113.262 343.817 113.262ZM341.443 120.086V118.988H343.304V115.66C343.304 115.397 343.176 115.266 342.922 115.266H341.61V114.168H343.149C343.642 114.168 344 114.284 344.222 114.514C344.453 114.737 344.568 115.095 344.568 115.588V118.988H346.43V120.086H341.443ZM348.441 120.086V114.168H349.539L349.646 115.051H349.706C349.865 114.765 350.111 114.522 350.445 114.324C350.78 114.125 351.165 114.025 351.603 114.025C352.327 114.025 352.871 114.244 353.237 114.681C353.603 115.119 353.786 115.763 353.786 116.614V120.086H352.521V116.769C352.521 116.276 352.418 115.894 352.211 115.624C352.004 115.354 351.678 115.218 351.233 115.218C350.795 115.218 350.43 115.365 350.135 115.66C349.849 115.954 349.706 116.38 349.706 116.936V120.086H348.441ZM358.315 120.229C357.742 120.229 357.237 120.102 356.8 119.847C356.362 119.585 356.02 119.223 355.774 118.762C355.527 118.3 355.404 117.763 355.404 117.151C355.404 116.531 355.523 115.986 355.762 115.517C356.008 115.047 356.35 114.681 356.788 114.419C357.233 114.156 357.746 114.025 358.327 114.025C358.9 114.025 359.393 114.156 359.806 114.419C360.22 114.673 360.538 115.015 360.761 115.445C360.991 115.874 361.107 116.348 361.107 116.865C361.107 116.944 361.107 117.032 361.107 117.127C361.107 117.215 361.103 117.314 361.095 117.425H356.645C356.684 117.974 356.863 118.392 357.182 118.678C357.5 118.957 357.874 119.096 358.303 119.096C358.677 119.096 358.971 119.02 359.186 118.869C359.409 118.71 359.572 118.495 359.675 118.225H360.952C360.808 118.789 360.51 119.267 360.057 119.656C359.603 120.038 359.023 120.229 358.315 120.229ZM358.315 115.123C357.925 115.123 357.579 115.242 357.277 115.481C356.975 115.711 356.78 116.038 356.692 116.459H359.842C359.81 116.061 359.655 115.739 359.377 115.493C359.098 115.246 358.744 115.123 358.315 115.123ZM365.469 120.229C364.896 120.229 364.391 120.102 363.953 119.847C363.516 119.585 363.174 119.223 362.927 118.762C362.681 118.3 362.558 117.763 362.558 117.151C362.558 116.531 362.677 115.986 362.915 115.517C363.162 115.047 363.504 114.681 363.941 114.419C364.387 114.156 364.9 114.025 365.481 114.025C366.053 114.025 366.546 114.156 366.96 114.419C367.373 114.673 367.692 115.015 367.914 115.445C368.145 115.874 368.26 116.348 368.26 116.865C368.26 116.944 368.26 117.032 368.26 117.127C368.26 117.215 368.256 117.314 368.248 117.425H363.798C363.838 117.974 364.017 118.392 364.335 118.678C364.653 118.957 365.027 119.096 365.457 119.096C365.83 119.096 366.125 119.02 366.339 118.869C366.562 118.71 366.725 118.495 366.829 118.225H368.105C367.962 118.789 367.664 119.267 367.21 119.656C366.757 120.038 366.176 120.229 365.469 120.229ZM365.469 115.123C365.079 115.123 364.733 115.242 364.431 115.481C364.128 115.711 363.934 116.038 363.846 116.459H366.996C366.964 116.061 366.809 115.739 366.53 115.493C366.252 115.246 365.898 115.123 365.469 115.123ZM369.89 120.086V118.988H371.334V115.66C371.334 115.397 371.206 115.266 370.952 115.266H370.009V114.168H371.429C371.755 114.168 372.022 114.264 372.229 114.455C372.435 114.638 372.539 114.896 372.539 115.23V115.373H372.598C372.686 114.928 372.873 114.594 373.159 114.371C373.453 114.141 373.879 114.025 374.436 114.025H375.354V115.361H374.066C373.597 115.361 373.235 115.525 372.98 115.851C372.726 116.177 372.598 116.566 372.598 117.02V118.988H374.436V120.086H369.89ZM297.769 133.086L300.263 124.735H301.766L304.259 133.086H302.887L302.327 131.082H299.702L299.141 133.086H297.769ZM300.978 126.524L299.988 130.068H302.04L301.05 126.524H300.978ZM308.216 133.229C307.436 133.229 306.816 133.046 306.354 132.68C305.893 132.314 305.631 131.829 305.567 131.225H306.867C306.915 131.503 307.054 131.73 307.285 131.905C307.524 132.08 307.838 132.167 308.228 132.167C308.601 132.167 308.888 132.092 309.087 131.941C309.293 131.782 309.397 131.599 309.397 131.392C309.397 131.09 309.273 130.883 309.027 130.771C308.788 130.66 308.434 130.577 307.965 130.521C307.559 130.473 307.19 130.382 306.856 130.246C306.529 130.103 306.271 129.912 306.08 129.674C305.889 129.427 305.794 129.121 305.794 128.755C305.794 128.238 305.997 127.821 306.402 127.502C306.808 127.184 307.373 127.025 308.096 127.025C308.82 127.025 309.381 127.188 309.778 127.514C310.176 127.84 310.407 128.286 310.47 128.851H309.254C309.222 128.612 309.098 128.425 308.884 128.29C308.669 128.147 308.403 128.075 308.084 128.075C307.758 128.075 307.5 128.139 307.309 128.266C307.118 128.385 307.023 128.544 307.023 128.743C307.023 129.173 307.484 129.435 308.406 129.531C308.844 129.578 309.234 129.662 309.576 129.781C309.918 129.893 310.188 130.071 310.387 130.318C310.586 130.557 310.685 130.895 310.685 131.332C310.693 131.69 310.59 132.012 310.375 132.299C310.168 132.585 309.878 132.812 309.504 132.979C309.138 133.146 308.709 133.229 308.216 133.229ZM315.369 133.229C314.59 133.229 313.969 133.046 313.508 132.68C313.047 132.314 312.784 131.829 312.721 131.225H314.021C314.069 131.503 314.208 131.73 314.439 131.905C314.677 132.08 314.991 132.167 315.381 132.167C315.755 132.167 316.041 132.092 316.24 131.941C316.447 131.782 316.55 131.599 316.55 131.392C316.55 131.09 316.427 130.883 316.181 130.771C315.942 130.66 315.588 130.577 315.119 130.521C314.713 130.473 314.343 130.382 314.009 130.246C313.683 130.103 313.425 129.912 313.234 129.674C313.043 129.427 312.947 129.121 312.947 128.755C312.947 128.238 313.15 127.821 313.556 127.502C313.961 127.184 314.526 127.025 315.25 127.025C315.974 127.025 316.534 127.188 316.932 127.514C317.33 127.84 317.56 128.286 317.624 128.851H316.407C316.375 128.612 316.252 128.425 316.037 128.29C315.823 128.147 315.556 128.075 315.238 128.075C314.912 128.075 314.653 128.139 314.463 128.266C314.272 128.385 314.176 128.544 314.176 128.743C314.176 129.173 314.638 129.435 315.56 129.531C315.998 129.578 316.387 129.662 316.729 129.781C317.071 129.893 317.342 130.071 317.541 130.318C317.739 130.557 317.839 130.895 317.839 131.332C317.847 131.69 317.743 132.012 317.529 132.299C317.322 132.585 317.032 132.812 316.658 132.979C316.292 133.146 315.862 133.229 315.369 133.229ZM322.475 133.229C321.91 133.229 321.405 133.102 320.96 132.847C320.515 132.593 320.165 132.235 319.91 131.774C319.656 131.304 319.528 130.756 319.528 130.127C319.528 129.499 319.656 128.954 319.91 128.493C320.165 128.023 320.515 127.662 320.96 127.407C321.405 127.153 321.914 127.025 322.487 127.025C323.06 127.025 323.565 127.153 324.002 127.407C324.448 127.662 324.794 128.023 325.04 128.493C325.295 128.954 325.422 129.499 325.422 130.127C325.422 130.756 325.295 131.304 325.04 131.774C324.786 132.235 324.436 132.593 323.99 132.847C323.553 133.102 323.048 133.229 322.475 133.229ZM322.475 132.024C322.777 132.024 323.056 131.957 323.31 131.821C323.565 131.686 323.768 131.479 323.919 131.201C324.078 130.915 324.157 130.557 324.157 130.127C324.157 129.69 324.078 129.332 323.919 129.053C323.768 128.775 323.565 128.568 323.31 128.433C323.064 128.298 322.789 128.23 322.487 128.23C322.185 128.23 321.906 128.298 321.652 128.433C321.397 128.568 321.191 128.775 321.032 129.053C320.88 129.332 320.805 129.69 320.805 130.127C320.805 130.779 320.968 131.261 321.294 131.571C321.628 131.873 322.022 132.024 322.475 132.024ZM329.712 133.229C329.164 133.229 328.67 133.102 328.233 132.847C327.803 132.593 327.465 132.235 327.219 131.774C326.972 131.304 326.849 130.756 326.849 130.127C326.849 129.499 326.972 128.954 327.219 128.493C327.473 128.031 327.815 127.673 328.245 127.419C328.674 127.156 329.164 127.025 329.712 127.025C330.468 127.025 331.076 127.216 331.538 127.598C332.007 127.972 332.305 128.489 332.432 129.149H331.108C331.029 128.863 330.866 128.636 330.619 128.469C330.38 128.302 330.074 128.218 329.7 128.218C329.43 128.218 329.171 128.29 328.925 128.433C328.686 128.576 328.491 128.791 328.34 129.077C328.197 129.356 328.126 129.706 328.126 130.127C328.126 130.541 328.197 130.891 328.34 131.177C328.491 131.463 328.686 131.682 328.925 131.833C329.171 131.976 329.43 132.048 329.7 132.048C330.082 132.048 330.388 131.964 330.619 131.797C330.85 131.63 331.013 131.4 331.108 131.105H332.432C332.273 131.758 331.963 132.275 331.502 132.656C331.041 133.038 330.444 133.229 329.712 133.229ZM336.663 126.262C336.385 126.262 336.15 126.174 335.959 125.999C335.776 125.816 335.685 125.594 335.685 125.331C335.685 125.069 335.776 124.85 335.959 124.675C336.15 124.5 336.385 124.412 336.663 124.412C336.949 124.412 337.184 124.5 337.367 124.675C337.558 124.85 337.653 125.069 337.653 125.331C337.653 125.594 337.558 125.816 337.367 125.999C337.184 126.174 336.949 126.262 336.663 126.262ZM334.289 133.086V131.988H336.15V128.66C336.15 128.397 336.023 128.266 335.768 128.266H334.456V127.168H335.995C336.488 127.168 336.846 127.284 337.069 127.514C337.299 127.737 337.415 128.095 337.415 128.588V131.988H339.276V133.086H334.289ZM343.399 133.229C342.93 133.229 342.536 133.15 342.218 132.99C341.9 132.823 341.661 132.605 341.502 132.334C341.343 132.056 341.264 131.754 341.264 131.428C341.264 130.847 341.474 130.394 341.896 130.068C342.325 129.741 342.93 129.578 343.709 129.578H345.236V129.447C345.236 128.556 344.823 128.111 343.996 128.111C343.654 128.111 343.363 128.186 343.125 128.338C342.894 128.481 342.739 128.715 342.66 129.041H341.395C341.459 128.421 341.725 127.932 342.194 127.574C342.671 127.208 343.272 127.025 343.996 127.025C344.871 127.025 345.507 127.24 345.905 127.669C346.302 128.099 346.501 128.692 346.501 129.447V133.086H345.427L345.32 132.215H345.236C345.062 132.493 344.843 132.732 344.58 132.931C344.318 133.13 343.924 133.229 343.399 133.229ZM343.638 132.167C344.155 132.167 344.541 132.012 344.795 131.702C345.058 131.384 345.201 130.982 345.225 130.497H343.841C343.387 130.497 343.065 130.573 342.874 130.724C342.691 130.867 342.6 131.07 342.6 131.332C342.6 131.595 342.691 131.801 342.874 131.953C343.065 132.096 343.32 132.167 343.638 132.167ZM351.734 133.086C351.153 133.086 350.692 132.947 350.35 132.668C350.008 132.382 349.837 131.877 349.837 131.153V128.242H348.346V127.168H349.229C349.634 127.168 349.873 126.97 349.944 126.572L350.123 125.617H351.102V127.168H353.44V128.242H351.102V131.129C351.102 131.44 351.169 131.658 351.304 131.786C351.448 131.905 351.69 131.964 352.032 131.964H353.416V133.086H351.734ZM358.315 133.229C357.742 133.229 357.237 133.102 356.8 132.847C356.362 132.585 356.02 132.223 355.774 131.762C355.527 131.3 355.404 130.763 355.404 130.151C355.404 129.531 355.523 128.986 355.762 128.517C356.008 128.047 356.35 127.681 356.788 127.419C357.233 127.156 357.746 127.025 358.327 127.025C358.9 127.025 359.393 127.156 359.806 127.419C360.22 127.673 360.538 128.015 360.761 128.445C360.991 128.874 361.107 129.348 361.107 129.865C361.107 129.944 361.107 130.032 361.107 130.127C361.107 130.215 361.103 130.314 361.095 130.425H356.645C356.684 130.974 356.863 131.392 357.182 131.678C357.5 131.957 357.874 132.096 358.303 132.096C358.677 132.096 358.971 132.02 359.186 131.869C359.409 131.71 359.572 131.495 359.675 131.225H360.952C360.808 131.789 360.51 132.267 360.057 132.656C359.603 133.038 359.023 133.229 358.315 133.229ZM358.315 128.123C357.925 128.123 357.579 128.242 357.277 128.481C356.975 128.711 356.78 129.038 356.692 129.459H359.842C359.81 129.061 359.655 128.739 359.377 128.493C359.098 128.246 358.744 128.123 358.315 128.123Z" fill="white"/>
<path d="M329.715 11.729C352.927 11.729 373.853 14.6863 388.884 19.2925C396.416 21.6007 402.32 24.2792 406.279 27.1011C410.32 29.9812 411.804 32.6076 411.799 34.7388V183.414C411.799 183.922 411.666 184.421 411.414 184.863C411.162 185.304 410.798 185.672 410.36 185.93L329.768 232.678L249.042 185.93H249.043C248.605 185.672 248.241 185.304 247.989 184.863C247.737 184.421 247.604 183.922 247.604 183.414V34.7456C247.604 32.6116 249.097 29.9818 253.143 27.1011C257.108 24.2787 263.016 21.6006 270.55 19.2925C285.584 14.6863 306.507 11.729 329.715 11.729Z" stroke="#1B3139" stroke-width="5.36872"/>
<g clip-path="url(#clip3_3192_131)">
<mask id="mask1_3192_131" style="mask-type:alpha" maskUnits="userSpaceOnUse" x="250" y="52" width="160" height="48">
<path d="M250.343 58.2177C250.343 54.9232 253.014 52.2524 256.309 52.2524H403.65C406.945 52.2524 409.616 54.9232 409.616 58.2177V99.9744H250.343V58.2177Z" fill="white"/>
</mask>
<g mask="url(#mask1_3192_131)">
<rect x="249.091" y="42.708" width="162.255" height="73.3726" fill="#F16955"/>
<path d="M409.615 53.7437L249.091 100.273H409.615V53.7437Z" fill="#FF5F46"/>
</g>
<path d="M297.299 81.4143C297.473 80.9982 298.062 80.9982 298.235 81.4143L299.542 84.5561C299.615 84.7315 299.78 84.8514 299.969 84.8665L303.361 85.1385C303.81 85.1745 303.992 85.7351 303.65 86.0283L301.066 88.2419C300.922 88.3655 300.859 88.5595 300.903 88.7443L301.692 92.0541C301.797 92.4925 301.32 92.839 300.935 92.6041L298.031 90.8304C297.869 90.7314 297.665 90.7314 297.503 90.8304L294.599 92.6041C294.215 92.839 293.738 92.4925 293.842 92.0541L294.632 88.7443C294.676 88.5595 294.613 88.3655 294.469 88.2419L291.885 86.0283C291.542 85.7351 291.724 85.1745 292.174 85.1385L295.565 84.8665C295.755 84.8514 295.92 84.7315 295.993 84.5561L297.299 81.4143Z" fill="#1B3139"/>
<path d="M318.774 81.4143C318.947 80.9982 319.537 80.9982 319.71 81.4143L321.017 84.5561C321.089 84.7315 321.254 84.8514 321.444 84.8665L324.836 85.1385C325.285 85.1745 325.467 85.7351 325.125 86.0283L322.541 88.2419C322.396 88.3655 322.333 88.5595 322.377 88.7443L323.167 92.0541C323.271 92.4925 322.795 92.839 322.41 92.6041L319.506 90.8304C319.344 90.7314 319.14 90.7314 318.978 90.8304L316.074 92.6041C315.689 92.839 315.213 92.4925 315.317 92.0541L316.107 88.7443C316.151 88.5595 316.088 88.3655 315.943 88.2419L313.359 86.0283C313.017 85.7351 313.199 85.1745 313.648 85.1385L317.04 84.8665C317.229 84.8514 317.394 84.7315 317.467 84.5561L318.774 81.4143Z" fill="#1B3139"/>
<path d="M340.249 81.4143C340.422 80.9982 341.012 80.9982 341.185 81.4143L342.492 84.5561C342.565 84.7315 342.73 84.8514 342.919 84.8665L346.311 85.1385C346.76 85.1745 346.942 85.7351 346.6 86.0283L344.016 88.2419C343.871 88.3655 343.808 88.5595 343.852 88.7443L344.642 92.0541C344.746 92.4925 344.27 92.839 343.885 92.6041L340.981 90.8304C340.819 90.7314 340.615 90.7314 340.453 90.8304L337.549 92.6041C337.164 92.839 336.688 92.4925 336.792 92.0541L337.582 88.7443C337.626 88.5595 337.563 88.3655 337.418 88.2419L334.834 86.0283C334.492 85.7351 334.674 85.1745 335.123 85.1385L338.515 84.8665C338.705 84.8514 338.87 84.7315 338.942 84.5561L340.249 81.4143Z" fill="#1B3139"/>
<path d="M361.724 81.4143C361.897 80.9982 362.486 80.9982 362.66 81.4143L363.966 84.5561C364.039 84.7315 364.204 84.8514 364.394 84.8665L367.785 85.1385C368.235 85.1745 368.417 85.7351 368.075 86.0283L365.49 88.2419C365.346 88.3655 365.283 88.5595 365.327 88.7443L366.117 92.0541C366.221 92.4925 365.744 92.839 365.36 92.6041L362.456 90.8304C362.294 90.7314 362.09 90.7314 361.928 90.8304L359.024 92.6041C358.639 92.839 358.162 92.4925 358.267 92.0541L359.056 88.7443C359.1 88.5595 359.037 88.3655 358.893 88.2419L356.309 86.0283C355.967 85.7351 356.149 85.1745 356.598 85.1385L359.99 84.8665C360.179 84.8514 360.344 84.7315 360.417 84.5561L361.724 81.4143Z" fill="#1B3139"/>
<path d="M288.006 71.6033C286.972 71.6033 286.077 71.3796 285.322 70.9322C284.566 70.4748 283.984 69.8435 283.577 69.0382C283.179 68.223 282.98 67.2834 282.98 66.2196C282.98 65.1558 283.179 64.2163 283.577 63.4011C283.984 62.5858 284.566 61.9495 285.322 61.4922C286.077 61.0348 286.972 60.8062 288.006 60.8062C289.279 60.8062 290.317 61.1193 291.123 61.7457C291.928 62.3721 292.43 63.2569 292.629 64.4002H290.422C290.293 63.8435 290.024 63.411 289.617 63.1028C289.209 62.7846 288.667 62.6256 287.991 62.6256C287.375 62.6256 286.843 62.7747 286.395 63.073C285.958 63.3613 285.62 63.7739 285.381 64.3108C285.143 64.8377 285.023 65.474 285.023 66.2196C285.023 66.9554 285.143 67.5916 285.381 68.1285C285.62 68.6654 285.958 69.078 286.395 69.3663C286.843 69.6546 287.375 69.7988 287.991 69.7988C288.667 69.7988 289.204 69.6546 289.602 69.3663C290.009 69.068 290.283 68.6554 290.422 68.1285H292.629C292.43 69.2122 291.928 70.0623 291.123 70.6787C290.317 71.2951 289.279 71.6033 288.006 71.6033ZM297.167 71.4243V60.9851H304.027V62.6107H299.18V65.3398H303.579V66.9056H299.18V69.7988H304.027V71.4243H297.167ZM308.695 71.4243V60.9851H312.587C313.432 60.9851 314.128 61.1293 314.675 61.4176C315.222 61.7059 315.629 62.0937 315.898 62.5808C316.166 63.0581 316.3 63.59 316.3 64.1765C316.3 64.7333 316.166 65.2553 315.898 65.7424C315.639 66.2196 315.237 66.6074 314.69 66.9056C314.143 67.194 313.437 67.3381 312.572 67.3381H310.708V71.4243H308.695ZM314.108 71.4243L311.961 66.8311H314.138L316.405 71.4243H314.108ZM310.708 65.8766H312.468C313.074 65.8766 313.522 65.7275 313.81 65.4292C314.098 65.131 314.242 64.7383 314.242 64.2511C314.242 63.7639 314.098 63.3812 313.81 63.1028C313.532 62.8145 313.084 62.6703 312.468 62.6703H310.708V65.8766ZM323.338 71.4243V62.6107H320.295V60.9851H328.393V62.6107H325.351V71.4243H323.338ZM332.654 71.4243V60.9851H334.667V71.4243H332.654ZM339.55 71.4243V60.9851H346.336V62.6107H341.564V65.3994H345.396V66.9802H341.564V71.4243H339.55ZM350.671 71.4243V60.9851H352.684V71.4243H350.671ZM357.567 71.4243V60.9851H364.427V62.6107H359.581V65.3398H363.98V66.9056H359.581V69.7988H364.427V71.4243H357.567ZM369.095 71.4243V60.9851H372.6C373.813 60.9851 374.812 61.2039 375.597 61.6413C376.393 62.0688 376.979 62.6753 377.357 63.4607C377.745 64.2362 377.939 65.1509 377.939 66.2047C377.939 67.2586 377.745 68.1782 377.357 68.9637C376.979 69.7391 376.393 70.3456 375.597 70.7831C374.812 71.2106 373.813 71.4243 372.6 71.4243H369.095ZM371.109 69.6944H372.495C373.35 69.6944 374.022 69.5552 374.509 69.2768C375.006 68.9984 375.359 68.6008 375.568 68.0838C375.776 67.5568 375.881 66.9305 375.881 66.2047C375.881 65.469 375.776 64.8427 375.568 64.3257C375.359 63.7987 375.006 63.3961 374.509 63.1177C374.022 62.8393 373.35 62.7001 372.495 62.7001H371.109V69.6944Z" fill="#1B3139"/>
</g>
<path d="M302.588 42.9622V41.8683C302.588 41.8279 302.575 41.7887 302.551 41.756C302.527 41.7233 302.494 41.6987 302.456 41.6855C302.417 41.6724 302.376 41.6713 302.337 41.6825C302.298 41.6937 302.264 41.7166 302.238 41.748C301.833 42.2201 301.33 42.5972 300.762 42.8524C300.195 43.1076 299.579 43.2347 298.957 43.2247C298.29 43.228 297.629 43.0926 297.017 42.8271C296.405 42.5616 295.855 42.1718 295.401 41.6824C294.451 40.6318 293.935 39.2595 293.958 37.843C293.927 37.1606 294.032 36.4789 294.268 35.8377C294.504 35.1965 294.865 34.6088 295.33 34.1088C295.796 33.6087 296.356 33.2065 296.979 32.9255C297.601 32.6445 298.274 32.4904 298.957 32.4722C299.573 32.4555 300.186 32.573 300.753 32.8167C301.319 33.0603 301.826 33.4242 302.238 33.8832C302.27 33.9064 302.309 33.9188 302.348 33.9188C302.387 33.9188 302.425 33.9064 302.457 33.8832C302.496 33.8696 302.529 33.8445 302.552 33.8111C302.576 33.7778 302.589 33.738 302.588 33.6973V28.228H304.853V42.9294L302.588 42.9622ZM302.687 37.843C302.674 37.2099 302.474 36.5947 302.113 36.0745C301.752 35.5544 301.245 35.1524 300.657 34.919C300.068 34.6857 299.424 34.6313 298.804 34.7627C298.185 34.8941 297.618 35.2054 297.175 35.6577C296.731 36.1099 296.431 36.683 296.313 37.305C296.194 37.9269 296.261 38.5701 296.506 39.154C296.752 39.7378 297.164 40.2362 297.691 40.5868C298.218 40.9373 298.838 41.1244 299.471 41.1245C300.33 41.1073 301.148 40.754 301.749 40.1405C302.35 39.5269 302.687 38.702 302.687 37.843V37.843ZM314.72 42.9622V41.8683C314.735 41.8247 314.733 41.7769 314.715 41.7345C314.697 41.692 314.663 41.6578 314.621 41.6386C314.589 41.6183 314.551 41.6075 314.512 41.6075C314.473 41.6075 314.436 41.6183 314.403 41.6386C314.001 42.1159 313.498 42.4979 312.93 42.7571C312.363 43.0163 311.745 43.1461 311.121 43.1372C309.768 43.0314 308.504 42.4191 307.582 41.4225C306.66 40.4259 306.148 39.1184 306.148 37.7609C306.148 36.4035 306.66 35.0959 307.582 34.0994C308.504 33.1028 309.768 32.4905 311.121 32.3847C311.738 32.359 312.352 32.4714 312.92 32.7137C313.488 32.9559 313.994 33.3218 314.403 33.7848C314.429 33.8159 314.463 33.8387 314.502 33.8503C314.541 33.862 314.583 33.862 314.621 33.8504C314.659 33.8355 314.692 33.81 314.715 33.777C314.738 33.744 314.751 33.7049 314.753 33.6645V32.6362H316.995V42.8747L314.72 42.9622ZM314.818 37.843C314.805 37.2099 314.606 36.5947 314.245 36.0745C313.884 35.5544 313.377 35.1524 312.788 34.919C312.2 34.6857 311.555 34.6313 310.936 34.7627C310.316 34.8941 309.749 35.2054 309.306 35.6577C308.863 36.1099 308.563 36.683 308.444 37.305C308.325 37.9269 308.393 38.5701 308.638 39.154C308.883 39.7378 309.295 40.2362 309.823 40.5868C310.35 40.9373 310.969 41.1244 311.602 41.1245C312.459 41.1045 313.275 40.75 313.873 40.1367C314.472 39.5235 314.808 38.7002 314.807 37.843H314.818ZM333.907 42.9622V41.8683C333.91 41.8285 333.899 41.789 333.878 41.7555C333.856 41.722 333.824 41.6964 333.787 41.6824C333.754 41.662 333.716 41.6513 333.677 41.6513C333.639 41.6513 333.601 41.662 333.568 41.6824C333.166 42.1591 332.663 42.5407 332.095 42.7998C331.528 43.0589 330.91 43.1891 330.286 43.181C328.933 43.0751 327.669 42.4628 326.747 41.4663C325.826 40.4697 325.314 39.1621 325.314 37.8047C325.314 36.4472 325.826 35.1397 326.747 34.1431C327.669 33.1465 328.933 32.5342 330.286 32.4284C330.903 32.4036 331.517 32.5163 332.085 32.7585C332.653 33.0007 333.159 33.3662 333.568 33.8285C333.594 33.8596 333.629 33.8824 333.668 33.8941C333.706 33.9058 333.748 33.9058 333.787 33.8942C333.823 33.8788 333.854 33.8529 333.876 33.8197C333.897 33.7866 333.908 33.7477 333.907 33.7082V32.68H336.161V42.9184L333.907 42.9622ZM334.016 37.843C334.004 37.2099 333.804 36.5947 333.443 36.0745C333.082 35.5544 332.575 35.1524 331.986 34.919C331.398 34.6857 330.753 34.6313 330.134 34.7627C329.514 34.8941 328.947 35.2054 328.504 35.6577C328.061 36.1099 327.761 36.683 327.642 37.305C327.523 37.9269 327.591 38.5701 327.836 39.154C328.081 39.7378 328.493 40.2362 329.021 40.5868C329.548 40.9373 330.167 41.1244 330.8 41.1245C331.657 41.1045 332.473 40.75 333.072 40.1367C333.671 39.5235 334.006 38.7002 334.006 37.843H334.016ZM340.142 41.934V42.9622H337.878V28.2608H340.142V33.8176C340.142 33.8584 340.155 33.8982 340.178 33.9315C340.202 33.9648 340.235 33.99 340.274 34.0035C340.307 34.0217 340.345 34.0313 340.383 34.0313C340.421 34.0313 340.459 34.0217 340.492 34.0035C340.897 33.5315 341.401 33.1544 341.969 32.8992C342.536 32.6439 343.152 32.5168 343.774 32.5269C344.44 32.5228 345.1 32.6568 345.712 32.9203C346.324 33.1839 346.875 33.5713 347.329 34.0582C348.278 35.11 348.794 36.4815 348.773 37.8977C348.806 38.581 348.701 39.2638 348.466 39.9063C348.231 40.5487 347.87 41.1378 347.405 41.639C346.939 42.1402 346.378 42.5434 345.755 42.8251C345.131 43.1068 344.458 43.2612 343.774 43.2794C343.156 43.2962 342.543 43.1776 341.976 42.932C341.409 42.6863 340.903 42.3195 340.492 41.8574C340.452 41.8162 340.397 41.7926 340.339 41.7918H340.274C340.239 41.8005 340.208 41.8183 340.183 41.8433C340.158 41.8684 340.14 41.8997 340.131 41.934H340.142ZM343.26 41.1683C343.912 41.1813 344.553 41 345.101 40.6474C345.649 40.2949 346.08 39.787 346.338 39.1887C346.597 38.5903 346.671 37.9285 346.552 37.2877C346.433 36.6469 346.126 36.0561 345.669 35.5905C345.213 35.125 344.629 34.8059 343.99 34.6739C343.352 34.5418 342.689 34.6029 342.085 34.8492C341.482 35.0955 340.965 35.516 340.602 36.057C340.238 36.5979 340.044 37.2349 340.044 37.8867C340.044 38.7439 340.379 39.5672 340.978 40.1805C341.577 40.7937 342.392 41.1483 343.249 41.1683H343.26ZM355.293 34.8239C355.475 34.805 355.658 34.805 355.84 34.8239V32.505C355.713 32.4906 355.584 32.4906 355.457 32.505C354.89 32.4986 354.331 32.6394 353.834 32.9136C353.338 33.1877 352.921 33.5859 352.624 34.0692C352.602 34.1054 352.568 34.1335 352.529 34.1493C352.49 34.165 352.446 34.1676 352.405 34.1567C352.365 34.145 352.329 34.1206 352.303 34.0871C352.278 34.0537 352.264 34.0129 352.263 33.9707V32.7128H350.02V42.9512H352.285V38.4665C352.263 36.1694 353.411 34.8239 355.271 34.8239H355.293ZM357.262 32.7237V42.9622H359.548V32.7237H357.262ZM358.356 28.2608C358.081 28.2608 357.813 28.3423 357.584 28.495C357.356 28.6476 357.178 28.8646 357.072 29.1184C356.967 29.3723 356.94 29.6516 356.993 29.921C357.047 30.1905 357.179 30.4381 357.374 30.6323C357.568 30.8266 357.815 30.9589 358.085 31.0125C358.354 31.0661 358.634 31.0386 358.888 30.9335C359.141 30.8283 359.358 30.6503 359.511 30.4218C359.664 30.1934 359.745 29.9248 359.745 29.65C359.745 29.2854 359.602 28.9353 359.346 28.6754C359.09 28.4155 358.742 28.2666 358.378 28.2608H358.356ZM366.243 32.4722C365.528 32.4432 364.815 32.562 364.147 32.8211C363.48 33.0802 362.874 33.474 362.366 33.978C361.857 34.482 361.459 35.0853 361.194 35.7503C360.93 36.4153 360.805 37.1277 360.828 37.843C360.8 38.5581 360.921 39.2712 361.182 39.9374C361.444 40.6037 361.84 41.2086 362.347 41.7141C362.853 42.2197 363.459 42.6149 364.126 42.8748C364.793 43.1348 365.506 43.2539 366.221 43.2247C367.767 43.2375 369.261 42.6717 370.411 41.6386L369.12 40.2823C368.363 40.8387 367.456 41.155 366.517 41.1901C365.646 41.1901 364.811 40.8444 364.196 40.229C363.581 39.6136 363.235 38.7789 363.235 37.9086C363.235 37.0383 363.581 36.2036 364.196 35.5882C364.811 34.9728 365.646 34.627 366.517 34.627C367.447 34.6371 368.348 34.9565 369.076 35.5349L370.411 34.0911C369.28 33.038 367.788 32.4586 366.243 32.4722V32.4722ZM374.338 38.4446C374.38 38.4276 374.427 38.4276 374.469 38.4446V38.4446C374.523 38.45 374.573 38.4731 374.611 38.5102L378.232 43.0059H381.022L376.34 37.2632C376.308 37.2271 376.29 37.1804 376.29 37.132C376.29 37.0835 376.308 37.0368 376.34 37.0007L380.65 32.6909H377.893L374.174 36.421C374.143 36.4417 374.107 36.4527 374.07 36.4527C374.033 36.4527 373.997 36.4417 373.966 36.421C373.93 36.4056 373.899 36.3797 373.877 36.3465C373.856 36.3133 373.845 36.2745 373.846 36.235V28.1843H371.581V42.8856H373.846V38.904C373.847 38.8463 373.87 38.7913 373.911 38.7509L374.338 38.4446ZM384.719 43.2247C385.183 43.2666 385.65 43.2138 386.092 43.0697C386.535 42.9255 386.944 42.6929 387.293 42.386C387.643 42.0791 387.927 41.7043 388.128 41.2844C388.328 40.8645 388.441 40.4082 388.46 39.9432C388.46 38.543 387.585 37.5695 385.78 36.9788L384.544 36.5741C383.713 36.3006 383.319 35.9068 383.319 35.3709C383.319 34.8349 383.866 34.277 384.664 34.277C385.067 34.309 385.452 34.4516 385.779 34.689C386.105 34.9265 386.359 35.2495 386.513 35.6224L388.329 34.6489C387.987 33.9758 387.461 33.4132 386.813 33.0261C386.164 32.639 385.419 32.4432 384.664 32.4612C384.228 32.4207 383.788 32.4699 383.371 32.6057C382.954 32.7416 382.569 32.9612 382.24 33.2511C381.912 33.541 381.646 33.8951 381.459 34.2916C381.272 34.6881 381.168 35.1187 381.153 35.5568C381.153 36.9788 382.006 37.9414 383.746 38.4883L385.004 38.8931C385.901 39.1775 386.262 39.5275 386.262 40.1072C386.262 40.9823 385.452 41.2886 384.763 41.2886C384.292 41.2704 383.837 41.1117 383.457 40.833C383.077 40.5542 382.789 40.1681 382.63 39.7244L380.803 40.687C381.115 41.4615 381.659 42.1208 382.36 42.575C383.061 43.0291 383.885 43.256 384.719 43.2247V43.2247ZM323.231 43.1153C323.805 43.1156 324.379 43.0754 324.948 42.995V41.037C324.585 41.0837 324.22 41.1092 323.854 41.1136C322.935 41.1136 322.235 40.9604 322.235 38.9259V34.7255C322.235 34.6751 322.254 34.6266 322.289 34.59C322.323 34.5534 322.371 34.5314 322.421 34.5286H324.609V32.68H322.421C322.371 32.6772 322.323 32.6552 322.289 32.6186C322.254 32.582 322.235 32.5335 322.235 32.4831V29.6063H319.982V32.5706C319.982 32.5965 319.977 32.6221 319.967 32.646C319.957 32.6698 319.942 32.6916 319.924 32.7098C319.906 32.7281 319.884 32.7426 319.86 32.7525C319.836 32.7624 319.811 32.7675 319.785 32.7675H318.209V34.6161H319.785C319.811 34.6161 319.836 34.6212 319.86 34.6311C319.884 34.641 319.906 34.6555 319.924 34.6738C319.942 34.6921 319.957 34.7138 319.967 34.7377C319.977 34.7615 319.982 34.7871 319.982 34.813V39.5822C319.938 43.1153 322.279 43.1153 323.231 43.1153ZM287.952 34.8458L280.295 39.1446L272.123 34.5505L271.74 34.7583V38.1055L280.295 42.9184L287.952 38.6196V40.3916L280.295 44.6905L272.123 40.0963L271.74 40.3151V40.8839L280.295 45.6968L288.849 40.8839V37.5367L288.466 37.3179L280.295 41.9121L272.637 37.6133V35.8522L280.295 40.14L288.849 35.3271V32.0456L288.422 31.8049L280.295 36.3772L273.053 32.2971L280.295 28.228L286.256 31.5752L286.792 31.2799V30.8751L280.295 27.2217L271.74 32.0346V32.5597L280.295 37.3726L287.952 33.0738V34.8458Z" fill="white"/>
</g>
</g>
<defs>
<clipPath id="clip0_3192_131">
<rect width="462" height="236" fill="white"/>
</clipPath>
<clipPath id="clip1_3192_131">
<rect width="170" height="227" fill="white" transform="translate(245 9)"/>
</clipPath>
<clipPath id="clip2_3192_131">
<rect width="79.7616" height="79.209" fill="white" transform="translate(329.627 144.157)"/>
</clipPath>
<clipPath id="clip3_3192_131">
<rect width="159.133" height="47.6778" fill="white" transform="translate(250.343 52.2524)"/>
</clipPath>
</defs>
</svg>
