<svg width="462" height="236" viewBox="0 0 462 236" fill="none" xmlns="http://www.w3.org/2000/svg">
<g clip-path="url(#clip0_3192_323)">
<rect width="462" height="236" fill="#618794"/>
<mask id="mask0_3192_323" style="mask-type:alpha" maskUnits="userSpaceOnUse" x="0" y="0" width="462" height="188">
<rect x="6.10352e-05" width="462" height="188" fill="#D9D9D9"/>
</mask>
<g mask="url(#mask0_3192_323)">
<g opacity="0.24">
<path fill-rule="evenodd" clip-rule="evenodd" d="M110.776 24.713C105.903 28.3399 100.357 32.468 94.3293 34.0823C88.2836 35.7015 81.3435 34.9074 75.254 34.2106C74.4199 34.1151 73.6017 34.0215 72.804 33.9362C65.6659 33.1726 59.9834 33.0142 55.7309 35.4825C51.4701 37.9556 48.7404 43.0074 45.823 49.5907C45.496 50.3287 45.1656 51.087 44.8302 51.8566C43.7496 54.3363 42.6179 56.9333 41.3848 59.3458C39.755 62.5346 37.8117 65.689 35.2504 68.2503C32.6903 70.8104 29.5316 72.7606 26.3371 74.399C23.9074 75.6451 21.2924 76.7893 18.7963 77.8814C18.0368 78.2136 17.2884 78.5411 16.5596 78.8651C9.95124 81.8032 4.91074 84.53 2.48573 88.7253C0.0577106 92.9259 0.191309 98.7111 0.929171 105.925C1.01465 106.761 1.10778 107.617 1.20226 108.486C1.49315 111.161 1.79681 113.952 1.92918 116.625C2.10591 120.192 2.00341 123.879 1.08312 127.326C0.160501 130.783 -1.59409 134.006 -3.53083 136.98C-4.95801 139.171 -6.59171 141.38 -8.1575 143.498C-8.69591 144.226 -9.22629 144.943 -9.73748 145.645C-13.9564 151.439 -16.9799 156.398 -16.9799 161.474C-16.9799 166.545 -13.9909 171.404 -9.78651 177.147C-9.30234 177.809 -8.79963 178.484 -8.28691 179.173C-4.65997 184.046 -0.531889 189.592 1.08237 195.62C2.70155 201.665 1.90743 208.605 1.21065 214.695C1.11521 215.529 1.02159 216.347 0.936247 217.145C0.172626 224.283 0.0142307 229.965 2.48255 234.218C4.95567 238.479 10.0074 241.208 16.5908 244.126C17.3289 244.453 18.0873 244.783 18.8571 245.119C21.3366 246.199 23.9334 247.331 26.3459 248.564C29.5347 250.194 32.6891 252.137 35.2504 254.698C37.8105 257.259 39.7607 260.417 41.3991 263.612C42.6452 266.041 43.7893 268.656 44.8814 271.153C45.2137 271.912 45.5411 272.66 45.8652 273.389C48.8032 279.998 51.53 285.038 55.7254 287.463C59.9259 289.891 65.7112 289.758 72.9255 289.02C73.7613 288.934 74.6177 288.841 75.4864 288.747C78.1608 288.456 80.9526 288.152 83.6247 288.02C87.1925 287.843 90.8788 287.945 94.3265 288.866C97.7829 289.788 101.007 291.543 103.98 293.48C106.171 294.907 108.38 296.54 110.498 298.106C111.226 298.645 111.943 299.175 112.646 299.686C118.439 303.905 123.399 306.929 128.474 306.929C133.545 306.929 138.404 303.94 144.147 299.735C144.809 299.251 145.484 298.749 146.173 298.236C151.046 294.609 156.592 290.481 162.62 288.866C168.665 287.247 175.605 288.041 181.695 288.738C182.529 288.834 183.347 288.927 184.145 289.013C191.283 289.776 196.965 289.935 201.218 287.466C205.479 284.993 208.209 279.941 211.126 273.358C211.453 272.62 211.783 271.862 212.119 271.092C213.199 268.613 214.331 266.016 215.564 263.603C217.194 260.414 219.137 257.26 221.699 254.698C224.26 252.137 227.415 250.195 230.605 248.567C233.013 247.337 235.607 246.208 238.083 245.13C238.856 244.794 239.618 244.462 240.359 244.134C246.941 241.221 251.991 238.491 254.464 234.222C256.891 230.021 256.758 224.237 256.02 217.023C255.934 216.187 255.841 215.331 255.747 214.462C255.456 211.788 255.152 208.996 255.02 206.324C254.843 202.756 254.945 199.07 255.866 195.622C256.788 192.166 258.543 188.942 260.48 185.969C261.907 183.778 263.54 181.569 265.106 179.451C265.645 178.723 266.175 178.005 266.686 177.303C270.905 171.51 273.929 166.55 273.929 161.474C273.929 156.404 270.94 151.545 266.735 145.802C266.251 145.14 265.749 144.465 265.236 143.776C261.609 138.903 257.481 133.357 255.867 127.329C254.247 121.284 255.041 114.343 255.738 108.254C255.834 107.42 255.927 106.602 256.013 105.804C256.776 98.6658 256.935 92.9833 254.466 88.7308C251.993 84.47 246.941 81.7403 240.358 78.823C239.62 78.4959 238.862 78.1655 238.092 77.8301C235.612 76.7495 233.016 75.6178 230.603 74.3848C227.414 72.755 224.26 70.8117 221.699 68.2503C219.138 65.6903 217.188 62.5315 215.55 59.3371C214.304 56.9072 213.159 54.2921 212.067 51.7958C211.735 51.0365 211.408 50.2882 211.084 49.5595C208.146 42.9512 205.419 37.9107 201.224 35.4857C197.023 33.0576 191.238 33.1912 184.023 33.9291C183.188 34.0146 182.331 34.1077 181.463 34.2022C178.788 34.4931 175.996 34.7968 173.324 34.9291C169.756 35.1058 166.07 35.0033 162.622 34.0831C159.166 33.1604 155.942 31.4058 152.969 29.4691C150.778 28.042 148.569 26.4083 146.451 24.8425C145.723 24.3041 145.005 23.7737 144.303 23.2625C138.51 19.0435 133.55 16.02 128.474 16.02C123.404 16.02 118.545 19.009 112.802 23.2134C112.14 23.6976 111.465 24.2003 110.776 24.713ZM108.655 17.5489C114.22 13.4756 120.816 9 128.474 9C136.128 9 142.822 13.4996 148.436 17.5876C149.234 18.1687 150.01 18.7427 150.772 19.3062C152.838 20.8332 154.799 22.2831 156.801 23.587C159.512 25.3533 162.016 26.6554 164.433 27.3005C166.859 27.948 169.71 28.0795 172.977 27.9177C175.424 27.7965 177.919 27.5253 180.538 27.2407C181.446 27.142 182.368 27.0417 183.309 26.9455C190.223 26.2385 198.29 25.6817 204.737 29.4079C211.188 33.1371 214.686 40.3816 217.498 46.7076C217.862 47.5252 218.214 48.3309 218.562 49.1247C219.635 51.5765 220.658 53.9142 221.796 56.1334C223.29 59.0456 224.847 61.4707 226.662 63.2864C228.477 65.1009 230.895 66.6501 233.798 68.1339C236 69.2593 238.316 70.2691 240.749 71.3294C241.554 71.6803 242.372 72.0369 243.202 72.4049C249.53 75.2089 256.763 78.7036 260.538 85.2068C264.317 91.7182 263.727 99.6896 262.993 106.551C262.901 107.407 262.807 108.249 262.715 109.077C262.011 115.38 261.4 120.854 262.648 125.513C263.887 130.142 267.109 134.496 270.838 139.536C271.35 140.229 271.872 140.934 272.4 141.655C276.473 147.22 280.949 153.816 280.949 161.474C280.949 169.128 276.449 175.822 272.361 181.436C271.78 182.234 271.206 183.01 270.643 183.772C269.116 185.838 267.666 187.799 266.362 189.801C264.596 192.512 263.293 195.016 262.648 197.433C262.001 199.859 261.869 202.71 262.031 205.977C262.152 208.424 262.424 210.919 262.708 213.538C262.807 214.446 262.907 215.368 263.003 216.309C263.71 223.223 264.267 231.29 260.541 237.737L260.539 237.739C256.765 244.256 249.53 247.751 243.201 250.553C242.366 250.923 241.544 251.281 240.735 251.633C238.307 252.69 235.995 253.697 233.796 254.819C230.893 256.301 228.476 257.848 226.662 259.662C224.848 261.477 223.299 263.895 221.815 266.798C220.69 269 219.68 271.317 218.619 273.749C218.268 274.554 217.912 275.372 217.544 276.202C214.74 282.53 211.245 289.763 204.742 293.538C198.231 297.317 190.259 296.727 183.398 295.993C182.542 295.901 181.7 295.807 180.872 295.715C174.569 295.011 169.095 294.4 164.436 295.648C159.807 296.887 155.453 300.109 150.413 303.838C149.72 304.35 149.015 304.872 148.294 305.4C142.729 309.473 136.133 313.949 128.474 313.949C120.821 313.949 114.127 309.449 108.513 305.361C107.715 304.78 106.939 304.206 106.176 303.642C104.111 302.116 102.15 300.666 100.148 299.362C97.4365 297.595 94.933 296.293 92.516 295.648C90.0903 295.001 87.2392 294.869 83.972 295.031C81.5251 295.152 79.0298 295.423 76.4106 295.708C75.5029 295.807 74.5804 295.907 73.6398 296.003C66.7263 296.71 58.6588 297.267 52.2123 293.541C45.7607 289.812 42.2631 282.567 39.4506 276.241C39.0871 275.424 38.7344 274.618 38.3869 273.824C37.3139 271.372 36.2908 269.035 35.1527 266.815C33.6591 263.903 32.1022 261.478 30.2865 259.662C28.472 257.848 26.0543 256.299 23.1511 254.815C20.9491 253.689 18.6324 252.68 16.1999 251.619C15.3949 251.268 14.5771 250.912 13.7467 250.544C7.4191 247.74 0.185856 244.245 -3.58883 237.742C-7.36831 231.231 -6.7779 223.259 -6.04392 216.398C-5.95231 215.542 -5.8583 214.7 -5.76588 213.872C-5.06209 207.569 -4.45088 202.095 -5.69864 197.436C-6.93843 192.807 -10.1597 188.453 -13.8888 183.413C-14.4012 182.72 -14.9232 182.015 -15.451 181.294C-19.5243 175.729 -23.9999 169.133 -23.9999 161.474C-23.9999 153.821 -19.5004 147.127 -15.4123 141.513C-14.8312 140.715 -14.2572 139.939 -13.6937 139.176C-12.1667 137.111 -10.7169 135.15 -9.41293 133.148C-7.64661 130.436 -6.34458 127.933 -5.6994 125.516C-5.05189 123.09 -4.92039 120.239 -5.08222 116.972C-5.20343 114.525 -5.47462 112.03 -5.75928 109.411C-5.85792 108.503 -5.95819 107.58 -6.0544 106.64C-6.76149 99.7263 -7.31819 91.6587 -3.592 85.2123C0.137182 78.7606 7.38167 75.263 13.7077 72.4505C14.5253 72.087 15.3312 71.7343 16.1251 71.3868C18.5767 70.3139 20.9144 69.2907 23.1335 68.1526C26.0457 66.659 28.4708 65.1022 30.2865 63.2864C32.101 61.472 33.6501 59.0542 35.134 56.151C36.2594 53.9491 37.2692 51.6325 38.3295 49.2001C38.6805 48.395 39.0369 47.5772 39.405 46.7466C42.209 40.419 45.7036 33.1858 52.2068 29.4111C58.7183 25.6316 66.6897 26.222 73.5507 26.956C74.4071 27.0476 75.2491 27.1416 76.0768 27.2341C82.3801 27.9378 87.8543 28.5491 92.5132 27.3013C97.1423 26.0615 101.496 22.8402 106.536 19.1112C107.229 18.5987 107.934 18.0767 108.655 17.5489Z" fill="white"/>
<path fill-rule="evenodd" clip-rule="evenodd" d="M128.451 73.8647C80.0561 73.8647 40.8414 113.079 40.8414 161.474C40.8414 209.869 80.0561 249.084 128.451 249.084C176.845 249.084 216.061 209.846 216.061 161.474C216.061 153.971 215.137 146.706 213.363 139.789L212.491 136.389L219.29 134.645L220.163 138.045C222.085 145.542 223.081 153.393 223.081 161.474C223.081 213.722 180.723 256.104 128.451 256.104C76.179 256.104 33.8214 213.746 33.8214 161.474C33.8214 109.202 76.179 66.8447 128.451 66.8447C161.164 66.8447 190.01 83.4487 206.992 108.69L208.604 111.087L117.922 201.867L71.2115 155.156L76.1754 150.192L117.92 191.937L199.521 110.246C183.612 88.1961 157.699 73.8647 128.451 73.8647Z" fill="white"/>
</g>
</g>
<rect y="188" width="462" height="68.6038" fill="white"/>
<g clip-path="url(#clip1_3192_323)">
<path d="M329.577 13.4834C283.566 13.4834 249.885 25.5239 249.885 34.3577V115.886H410.053L409.269 34.3577C409.269 25.5239 375.589 13.4834 329.577 13.4834Z" fill="black"/>
<path d="M247.723 125.53V183.371C247.723 184.476 248.276 185.397 249.197 185.95L330.063 232.738V125.53H247.723Z" fill="#1F5262"/>
<path d="M316.432 202.914C316.432 195.73 322.327 189.835 329.511 189.835V216.177C322.327 216.177 316.432 210.282 316.432 202.914Z" fill="#FF5F46"/>
<path d="M302.248 204.203C302.248 189.098 314.406 176.94 329.511 176.94C329.511 175.835 329.511 175.098 329.511 175.098V143.783H315.511V153.914C312.195 154.835 309.248 156.125 306.116 157.782L298.932 150.598L279.406 170.309L286.591 177.493C284.933 180.44 283.643 183.571 282.722 186.703H272.591V198.492L306.116 217.834C303.722 213.781 302.248 209.176 302.248 204.203Z" fill="#628794"/>
<path d="M329.695 232.738L410.378 185.95C411.299 185.397 411.851 184.476 411.851 183.371V125.53H329.695V232.738Z" fill="#010101"/>
<g clip-path="url(#clip2_3192_323)">
<path d="M382.718 150.654C381.06 148.627 379.218 146.785 376.823 145.68C374.613 144.575 372.034 143.838 369.455 143.838C366.876 143.838 364.482 144.391 362.087 145.68C359.876 146.785 357.85 148.443 356.192 150.654H382.718Z" fill="#1F5262"/>
<path d="M329.667 150.653C331.324 152.864 333.351 154.522 335.561 155.811C337.956 157.101 340.351 157.653 342.929 157.653C345.508 157.653 348.087 157.101 350.298 155.811C352.692 154.522 354.719 152.864 356.192 150.653H329.667V150.653Z" fill="#1F5262"/>
<path d="M382.718 150.653C384.376 152.864 386.402 154.522 388.613 155.811C391.007 157.101 393.402 157.653 395.981 157.653C398.56 157.653 401.139 157.101 403.349 155.811C405.744 154.522 407.77 152.864 409.244 150.653H382.718V150.653Z" fill="#1F5262"/>
<path d="M382.718 163.917C381.06 161.706 379.218 160.048 376.823 158.943C374.429 157.838 372.034 157.101 369.455 157.101C366.876 157.101 364.482 157.654 362.087 158.943C359.876 160.048 357.85 161.89 356.192 163.917H382.718Z" fill="#628794"/>
<path d="M329.667 163.917C331.324 165.943 333.351 167.601 335.561 168.706C337.956 169.811 340.351 170.364 342.929 170.364C345.508 170.364 348.087 169.811 350.298 168.706C352.692 167.601 354.719 165.943 356.192 163.917H329.667Z" fill="#628794"/>
<path d="M382.718 163.917C384.376 165.943 386.402 167.601 388.613 168.706C391.007 169.811 393.402 170.364 395.981 170.364C398.56 170.364 401.139 169.811 403.349 168.706C405.744 167.601 407.77 165.943 409.244 163.917H382.718Z" fill="#628794"/>
<path d="M382.718 176.995C381.06 174.969 379.218 173.127 376.823 172.021C374.613 170.916 372.034 170.179 369.455 170.179C366.876 170.179 364.482 170.732 362.087 172.021C359.876 173.127 357.85 174.784 356.192 176.995H382.718Z" fill="#1F5262"/>
<path d="M329.667 176.995C331.324 179.206 333.351 180.863 335.561 182.153C337.772 183.442 340.351 183.995 342.929 183.995C345.508 183.995 348.087 183.442 350.298 182.153C352.692 180.863 354.719 179.206 356.192 176.995H329.667Z" fill="#1F5262"/>
<path d="M382.718 176.995C384.376 179.206 386.402 180.863 388.613 182.153C391.007 183.442 393.402 183.995 395.981 183.995C398.56 183.995 401.139 183.442 403.349 182.153C405.744 180.863 407.77 179.206 409.244 176.995H382.718Z" fill="#1F5262"/>
<path d="M382.718 190.258C381.06 188.048 379.218 186.39 376.823 185.284C374.429 184.179 372.034 183.442 369.455 183.442C366.876 183.442 364.482 183.995 362.087 185.284C359.876 186.39 357.85 188.232 356.192 190.258H382.718Z" fill="#628794"/>
<path d="M329.667 190.258C331.324 192.284 333.351 193.942 335.561 195.047C337.956 196.152 340.351 196.705 342.929 196.705C345.508 196.705 348.087 196.152 350.298 195.047C352.692 193.942 354.719 192.284 356.192 190.258H329.667Z" fill="#628794"/>
<path d="M382.718 190.258C384.376 192.284 386.402 193.942 388.613 195.047C388.981 195.231 389.35 195.416 389.718 195.6L398.744 190.258H382.718V190.258Z" fill="#628794"/>
<path d="M380.692 201.126C379.586 200.021 378.297 199.1 376.823 198.363C374.613 197.258 372.034 196.521 369.455 196.521C366.876 196.521 364.482 197.074 362.087 198.363C359.876 199.468 357.85 201.126 356.192 203.337H376.639L380.692 201.126Z" fill="#1F5262"/>
<path d="M329.667 203.336C331.324 205.547 333.351 207.205 335.561 208.494C337.956 209.784 340.351 210.336 342.929 210.336C345.508 210.336 348.087 209.784 350.298 208.494C352.692 207.205 354.719 205.547 356.192 203.336H329.667Z" fill="#1F5262"/>
<path d="M329.667 216.6C331.324 218.626 333.351 220.284 335.561 221.389C337.772 222.494 340.351 223.047 342.929 223.047C343.298 223.047 343.482 223.047 343.85 223.047L354.719 216.6H329.667Z" fill="#628794"/>
</g>
<rect width="163.448" height="44.1428" transform="translate(247.943 99.8789)" fill="black"/>
<path d="M283.848 119.95V111.599H285.852C287.196 111.599 288.194 111.973 288.847 112.72C289.499 113.46 289.825 114.478 289.825 115.775C289.825 117.071 289.499 118.093 288.847 118.841C288.194 119.58 287.196 119.95 285.852 119.95H283.848ZM285.112 118.781H285.804C286.775 118.781 287.475 118.511 287.904 117.97C288.334 117.421 288.548 116.689 288.548 115.775C288.548 114.86 288.334 114.132 287.904 113.591C287.475 113.042 286.775 112.768 285.804 112.768H285.112V118.781ZM293.364 120.093C292.894 120.093 292.501 120.014 292.183 119.855C291.864 119.688 291.626 119.469 291.467 119.199C291.308 118.92 291.228 118.618 291.228 118.292C291.228 117.711 291.439 117.258 291.86 116.932C292.29 116.606 292.894 116.443 293.674 116.443H295.201V116.311C295.201 115.421 294.787 114.975 293.96 114.975C293.618 114.975 293.328 115.051 293.089 115.202C292.859 115.345 292.703 115.58 292.624 115.906H291.359C291.423 115.285 291.689 114.796 292.159 114.438C292.636 114.072 293.236 113.89 293.96 113.89C294.835 113.89 295.471 114.104 295.869 114.534C296.267 114.963 296.466 115.556 296.466 116.311V119.95H295.392L295.284 119.079H295.201C295.026 119.358 294.807 119.596 294.545 119.795C294.282 119.994 293.889 120.093 293.364 120.093ZM293.602 119.032C294.119 119.032 294.505 118.876 294.76 118.566C295.022 118.248 295.165 117.846 295.189 117.361H293.805C293.352 117.361 293.03 117.437 292.839 117.588C292.656 117.731 292.564 117.934 292.564 118.196C292.564 118.459 292.656 118.666 292.839 118.817C293.03 118.96 293.284 119.032 293.602 119.032ZM301.698 119.95C301.118 119.95 300.656 119.811 300.314 119.533C299.972 119.246 299.801 118.741 299.801 118.017V115.106H298.31V114.033H299.193C299.599 114.033 299.837 113.834 299.909 113.436L300.088 112.482H301.066V114.033H303.404V115.106H301.066V117.994C301.066 118.304 301.134 118.523 301.269 118.65C301.412 118.769 301.655 118.829 301.997 118.829H303.381V119.95H301.698ZM307.671 120.093C307.202 120.093 306.808 120.014 306.49 119.855C306.172 119.688 305.933 119.469 305.774 119.199C305.615 118.92 305.535 118.618 305.535 118.292C305.535 117.711 305.746 117.258 306.168 116.932C306.597 116.606 307.202 116.443 307.981 116.443H309.508V116.311C309.508 115.421 309.095 114.975 308.267 114.975C307.925 114.975 307.635 115.051 307.397 115.202C307.166 115.345 307.011 115.58 306.931 115.906H305.667C305.73 115.285 305.997 114.796 306.466 114.438C306.943 114.072 307.544 113.89 308.267 113.89C309.142 113.89 309.779 114.104 310.176 114.534C310.574 114.963 310.773 115.556 310.773 116.311V119.95H309.699L309.592 119.079H309.508C309.333 119.358 309.115 119.596 308.852 119.795C308.59 119.994 308.196 120.093 307.671 120.093ZM307.91 119.032C308.427 119.032 308.812 118.876 309.067 118.566C309.329 118.248 309.472 117.846 309.496 117.361H308.112C307.659 117.361 307.337 117.437 307.146 117.588C306.963 117.731 306.872 117.934 306.872 118.196C306.872 118.459 306.963 118.666 307.146 118.817C307.337 118.96 307.591 119.032 307.91 119.032ZM319.89 119.95V111.599H325.223V112.732H321.155V115.166H324.865V116.288H321.155V118.817H325.223V119.95H319.89ZM327.02 119.95V114.033H328.118L328.225 114.916H328.285C328.444 114.629 328.69 114.387 329.024 114.188C329.359 113.989 329.744 113.89 330.182 113.89C330.906 113.89 331.45 114.108 331.816 114.546C332.182 114.983 332.365 115.627 332.365 116.478V119.95H331.1V116.634C331.1 116.14 330.997 115.759 330.79 115.488C330.583 115.218 330.257 115.083 329.812 115.083C329.374 115.083 329.009 115.23 328.714 115.524C328.428 115.818 328.285 116.244 328.285 116.801V119.95H327.02ZM336.691 118.244C336.325 118.244 335.987 118.184 335.677 118.065L335.379 118.423C335.283 118.542 335.255 118.658 335.295 118.769C335.343 118.872 335.45 118.924 335.617 118.924H337.18C337.872 118.924 338.429 119.071 338.851 119.366C339.28 119.652 339.495 120.093 339.495 120.69C339.495 121.064 339.399 121.402 339.208 121.704C339.026 122.014 338.727 122.261 338.314 122.444C337.908 122.627 337.371 122.718 336.703 122.718C335.86 122.718 335.18 122.559 334.663 122.241C334.154 121.931 333.899 121.461 333.899 120.833C333.899 120.61 333.951 120.404 334.054 120.213C334.166 120.03 334.309 119.863 334.484 119.712C334.269 119.553 334.138 119.33 334.09 119.043C334.05 118.749 334.138 118.467 334.353 118.196L334.878 117.528C334.504 117.131 334.317 116.641 334.317 116.061C334.317 115.671 334.408 115.313 334.591 114.987C334.782 114.653 335.053 114.387 335.403 114.188C335.761 113.989 336.19 113.89 336.691 113.89C337.017 113.89 337.319 113.937 337.598 114.033H339.829V114.868L338.791 114.927V115.035C338.958 115.345 339.041 115.687 339.041 116.061C339.041 116.451 338.946 116.812 338.755 117.147C338.572 117.481 338.306 117.747 337.956 117.946C337.606 118.145 337.184 118.244 336.691 118.244ZM336.691 117.23C337.041 117.23 337.327 117.127 337.55 116.92C337.781 116.713 337.896 116.427 337.896 116.061C337.896 115.711 337.781 115.433 337.55 115.226C337.327 115.019 337.041 114.916 336.691 114.916C336.333 114.916 336.039 115.019 335.808 115.226C335.586 115.433 335.474 115.711 335.474 116.061C335.474 116.427 335.586 116.713 335.808 116.92C336.039 117.127 336.333 117.23 336.691 117.23ZM335.092 120.738C335.092 121.056 335.244 121.29 335.546 121.442C335.856 121.593 336.242 121.668 336.703 121.668C337.196 121.668 337.586 121.585 337.872 121.418C338.159 121.251 338.302 121.016 338.302 120.714C338.302 120.459 338.198 120.256 337.992 120.105C337.785 119.962 337.435 119.891 336.942 119.891H335.546C335.244 120.129 335.092 120.412 335.092 120.738ZM343.857 113.126C343.578 113.126 343.344 113.038 343.153 112.863C342.97 112.681 342.878 112.458 342.878 112.195C342.878 111.933 342.97 111.714 343.153 111.539C343.344 111.364 343.578 111.277 343.857 111.277C344.143 111.277 344.378 111.364 344.561 111.539C344.751 111.714 344.847 111.933 344.847 112.195C344.847 112.458 344.751 112.681 344.561 112.863C344.378 113.038 344.143 113.126 343.857 113.126ZM341.483 119.95V118.853H343.344V115.524C343.344 115.262 343.216 115.13 342.962 115.13H341.65V114.033H343.189C343.682 114.033 344.04 114.148 344.262 114.379C344.493 114.601 344.608 114.959 344.608 115.452V118.853H346.469V119.95H341.483ZM348.481 119.95V114.033H349.579L349.686 114.916H349.746C349.905 114.629 350.151 114.387 350.485 114.188C350.819 113.989 351.205 113.89 351.643 113.89C352.366 113.89 352.911 114.108 353.277 114.546C353.643 114.983 353.826 115.627 353.826 116.478V119.95H352.561V116.634C352.561 116.14 352.458 115.759 352.251 115.488C352.044 115.218 351.718 115.083 351.273 115.083C350.835 115.083 350.469 115.23 350.175 115.524C349.889 115.818 349.746 116.244 349.746 116.801V119.95H348.481ZM358.355 120.093C357.782 120.093 357.277 119.966 356.84 119.712C356.402 119.449 356.06 119.087 355.814 118.626C355.567 118.165 355.444 117.628 355.444 117.015C355.444 116.395 355.563 115.85 355.802 115.381C356.048 114.912 356.39 114.546 356.828 114.283C357.273 114.021 357.786 113.89 358.367 113.89C358.939 113.89 359.433 114.021 359.846 114.283C360.26 114.538 360.578 114.88 360.801 115.309C361.031 115.739 361.147 116.212 361.147 116.729C361.147 116.808 361.147 116.896 361.147 116.991C361.147 117.079 361.143 117.178 361.135 117.29H356.685C356.724 117.838 356.903 118.256 357.221 118.542C357.54 118.821 357.913 118.96 358.343 118.96C358.717 118.96 359.011 118.884 359.226 118.733C359.448 118.574 359.612 118.359 359.715 118.089H360.991C360.848 118.654 360.55 119.131 360.097 119.521C359.643 119.902 359.063 120.093 358.355 120.093ZM358.355 114.987C357.965 114.987 357.619 115.106 357.317 115.345C357.015 115.576 356.82 115.902 356.732 116.323H359.882C359.85 115.926 359.695 115.604 359.417 115.357C359.138 115.11 358.784 114.987 358.355 114.987ZM365.508 120.093C364.936 120.093 364.431 119.966 363.993 119.712C363.556 119.449 363.214 119.087 362.967 118.626C362.721 118.165 362.597 117.628 362.597 117.015C362.597 116.395 362.717 115.85 362.955 115.381C363.202 114.912 363.544 114.546 363.981 114.283C364.427 114.021 364.94 113.89 365.52 113.89C366.093 113.89 366.586 114.021 367 114.283C367.413 114.538 367.732 114.88 367.954 115.309C368.185 115.739 368.3 116.212 368.3 116.729C368.3 116.808 368.3 116.896 368.3 116.991C368.3 117.079 368.296 117.178 368.288 117.29H363.838C363.878 117.838 364.057 118.256 364.375 118.542C364.693 118.821 365.067 118.96 365.497 118.96C365.87 118.96 366.165 118.884 366.379 118.733C366.602 118.574 366.765 118.359 366.869 118.089H368.145C368.002 118.654 367.704 119.131 367.25 119.521C366.797 119.902 366.216 120.093 365.508 120.093ZM365.508 114.987C365.119 114.987 364.773 115.106 364.471 115.345C364.168 115.576 363.973 115.902 363.886 116.323H367.036C367.004 115.926 366.849 115.604 366.57 115.357C366.292 115.11 365.938 114.987 365.508 114.987ZM369.93 119.95V118.853H371.374V115.524C371.374 115.262 371.246 115.13 370.992 115.13H370.049V114.033H371.469C371.795 114.033 372.062 114.128 372.268 114.319C372.475 114.502 372.579 114.76 372.579 115.094V115.238H372.638C372.726 114.792 372.913 114.458 373.199 114.235C373.493 114.005 373.919 113.89 374.476 113.89H375.394V115.226H374.106C373.636 115.226 373.275 115.389 373.02 115.715C372.766 116.041 372.638 116.431 372.638 116.884V118.853H374.476V119.95H369.93ZM287.592 132.95V124.599H290.419C291.055 124.599 291.58 124.71 291.994 124.933C292.408 125.148 292.714 125.446 292.913 125.828C293.111 126.209 293.211 126.647 293.211 127.14C293.211 127.633 293.111 128.071 292.913 128.452C292.714 128.834 292.408 129.136 291.994 129.359C291.58 129.574 291.055 129.681 290.419 129.681H288.856V132.95H287.592ZM288.856 128.548H290.359C290.9 128.548 291.294 128.421 291.541 128.166C291.795 127.912 291.922 127.57 291.922 127.14C291.922 126.718 291.795 126.38 291.541 126.126C291.294 125.863 290.9 125.732 290.359 125.732H288.856V128.548ZM294.817 132.95V131.853H296.26V128.524C296.26 128.262 296.133 128.13 295.879 128.13H294.936V127.033H296.356C296.682 127.033 296.948 127.128 297.155 127.319C297.362 127.502 297.465 127.76 297.465 128.094V128.238H297.525C297.613 127.792 297.799 127.458 298.086 127.235C298.38 127.005 298.806 126.89 299.362 126.89H300.281V128.226H298.993C298.523 128.226 298.161 128.389 297.907 128.715C297.652 129.041 297.525 129.431 297.525 129.884V131.853H299.362V132.95H294.817ZM304.631 133.093C304.066 133.093 303.561 132.966 303.116 132.712C302.67 132.457 302.32 132.099 302.066 131.638C301.811 131.169 301.684 130.62 301.684 129.991C301.684 129.363 301.811 128.818 302.066 128.357C302.32 127.888 302.67 127.526 303.116 127.271C303.561 127.017 304.07 126.89 304.643 126.89C305.216 126.89 305.721 127.017 306.158 127.271C306.603 127.526 306.949 127.888 307.196 128.357C307.451 128.818 307.578 129.363 307.578 129.991C307.578 130.62 307.451 131.169 307.196 131.638C306.942 132.099 306.592 132.457 306.146 132.712C305.709 132.966 305.204 133.093 304.631 133.093ZM304.631 131.888C304.933 131.888 305.212 131.821 305.466 131.686C305.721 131.55 305.923 131.344 306.075 131.065C306.234 130.779 306.313 130.421 306.313 129.991C306.313 129.554 306.234 129.196 306.075 128.918C305.923 128.639 305.721 128.433 305.466 128.297C305.22 128.162 304.945 128.094 304.643 128.094C304.341 128.094 304.062 128.162 303.808 128.297C303.553 128.433 303.346 128.639 303.187 128.918C303.036 129.196 302.961 129.554 302.961 129.991C302.961 130.644 303.124 131.125 303.45 131.435C303.784 131.737 304.178 131.888 304.631 131.888ZM309.029 135.575V134.465H309.995C310.273 134.465 310.472 134.406 310.592 134.286C310.719 134.175 310.782 133.984 310.782 133.714V128.106H309.279V127.033H310.782V126.209C310.782 125.549 310.946 125.076 311.272 124.79C311.598 124.503 312.063 124.36 312.667 124.36H314.111V125.47H312.823C312.544 125.47 312.345 125.525 312.226 125.637C312.107 125.748 312.047 125.943 312.047 126.221V127.033H314.111V128.106H312.047V133.726C312.047 134.386 311.884 134.859 311.558 135.145C311.232 135.432 310.763 135.575 310.15 135.575H309.029ZM319.01 133.093C318.437 133.093 317.932 132.966 317.495 132.712C317.057 132.449 316.715 132.087 316.469 131.626C316.222 131.165 316.099 130.628 316.099 130.015C316.099 129.395 316.218 128.85 316.457 128.381C316.703 127.912 317.045 127.546 317.483 127.283C317.928 127.021 318.441 126.89 319.022 126.89C319.594 126.89 320.088 127.021 320.501 127.283C320.915 127.538 321.233 127.88 321.456 128.309C321.686 128.739 321.802 129.212 321.802 129.729C321.802 129.808 321.802 129.896 321.802 129.991C321.802 130.079 321.798 130.178 321.79 130.29H317.34C317.379 130.838 317.558 131.256 317.876 131.542C318.195 131.821 318.568 131.96 318.998 131.96C319.372 131.96 319.666 131.884 319.881 131.733C320.103 131.574 320.267 131.359 320.37 131.089H321.646C321.503 131.654 321.205 132.131 320.752 132.521C320.298 132.902 319.718 133.093 319.01 133.093ZM319.01 127.987C318.62 127.987 318.274 128.106 317.972 128.345C317.67 128.576 317.475 128.902 317.387 129.323H320.537C320.505 128.926 320.35 128.604 320.072 128.357C319.793 128.11 319.439 127.987 319.01 127.987ZM326.14 133.093C325.36 133.093 324.74 132.91 324.278 132.545C323.817 132.179 323.555 131.694 323.491 131.089H324.791C324.839 131.367 324.978 131.594 325.209 131.769C325.448 131.944 325.762 132.032 326.152 132.032C326.525 132.032 326.812 131.956 327.011 131.805C327.217 131.646 327.321 131.463 327.321 131.256C327.321 130.954 327.197 130.747 326.951 130.636C326.712 130.524 326.358 130.441 325.889 130.385C325.483 130.337 325.114 130.246 324.78 130.111C324.453 129.968 324.195 129.777 324.004 129.538C323.813 129.292 323.718 128.985 323.718 128.619C323.718 128.102 323.921 127.685 324.326 127.367C324.732 127.049 325.297 126.89 326.02 126.89C326.744 126.89 327.305 127.053 327.703 127.379C328.1 127.705 328.331 128.15 328.394 128.715H327.178C327.146 128.476 327.022 128.289 326.808 128.154C326.593 128.011 326.327 127.939 326.008 127.939C325.682 127.939 325.424 128.003 325.233 128.13C325.042 128.25 324.947 128.409 324.947 128.607C324.947 129.037 325.408 129.299 326.331 129.395C326.768 129.443 327.158 129.526 327.5 129.645C327.842 129.757 328.112 129.936 328.311 130.182C328.51 130.421 328.609 130.759 328.609 131.196C328.617 131.554 328.514 131.876 328.299 132.163C328.092 132.449 327.802 132.676 327.428 132.843C327.062 133.01 326.633 133.093 326.14 133.093ZM333.293 133.093C332.514 133.093 331.893 132.91 331.432 132.545C330.971 132.179 330.708 131.694 330.645 131.089H331.945C331.993 131.367 332.132 131.594 332.363 131.769C332.601 131.944 332.915 132.032 333.305 132.032C333.679 132.032 333.965 131.956 334.164 131.805C334.371 131.646 334.474 131.463 334.474 131.256C334.474 130.954 334.351 130.747 334.105 130.636C333.866 130.524 333.512 130.441 333.043 130.385C332.637 130.337 332.267 130.246 331.933 130.111C331.607 129.968 331.349 129.777 331.158 129.538C330.967 129.292 330.871 128.985 330.871 128.619C330.871 128.102 331.074 127.685 331.48 127.367C331.885 127.049 332.45 126.89 333.174 126.89C333.898 126.89 334.458 127.053 334.856 127.379C335.254 127.705 335.484 128.15 335.548 128.715H334.331C334.299 128.476 334.176 128.289 333.961 128.154C333.747 128.011 333.48 127.939 333.162 127.939C332.836 127.939 332.577 128.003 332.387 128.13C332.196 128.25 332.1 128.409 332.1 128.607C332.1 129.037 332.562 129.299 333.484 129.395C333.922 129.443 334.311 129.526 334.653 129.645C334.995 129.757 335.266 129.936 335.465 130.182C335.663 130.421 335.763 130.759 335.763 131.196C335.771 131.554 335.667 131.876 335.453 132.163C335.246 132.449 334.956 132.676 334.582 132.843C334.216 133.01 333.786 133.093 333.293 133.093ZM340.28 126.126C340.001 126.126 339.767 126.038 339.576 125.863C339.393 125.681 339.302 125.458 339.302 125.195C339.302 124.933 339.393 124.714 339.576 124.539C339.767 124.364 340.001 124.277 340.28 124.277C340.566 124.277 340.801 124.364 340.984 124.539C341.175 124.714 341.27 124.933 341.27 125.195C341.27 125.458 341.175 125.681 340.984 125.863C340.801 126.038 340.566 126.126 340.28 126.126ZM337.906 132.95V131.853H339.767V128.524C339.767 128.262 339.64 128.13 339.385 128.13H338.073V127.033H339.612C340.105 127.033 340.463 127.148 340.685 127.379C340.916 127.601 341.031 127.959 341.031 128.452V131.853H342.893V132.95H337.906ZM347.553 133.093C346.988 133.093 346.483 132.966 346.038 132.712C345.592 132.457 345.242 132.099 344.988 131.638C344.733 131.169 344.606 130.62 344.606 129.991C344.606 129.363 344.733 128.818 344.988 128.357C345.242 127.888 345.592 127.526 346.038 127.271C346.483 127.017 346.992 126.89 347.565 126.89C348.137 126.89 348.642 127.017 349.08 127.271C349.525 127.526 349.871 127.888 350.118 128.357C350.372 128.818 350.5 129.363 350.5 129.991C350.5 130.62 350.372 131.169 350.118 131.638C349.863 132.099 349.513 132.457 349.068 132.712C348.631 132.966 348.125 133.093 347.553 133.093ZM347.553 131.888C347.855 131.888 348.133 131.821 348.388 131.686C348.642 131.55 348.845 131.344 348.996 131.065C349.155 130.779 349.235 130.421 349.235 129.991C349.235 129.554 349.155 129.196 348.996 128.918C348.845 128.639 348.642 128.433 348.388 128.297C348.141 128.162 347.867 128.094 347.565 128.094C347.262 128.094 346.984 128.162 346.73 128.297C346.475 128.433 346.268 128.639 346.109 128.918C345.958 129.196 345.883 129.554 345.883 129.991C345.883 130.644 346.046 131.125 346.372 131.435C346.706 131.737 347.099 131.888 347.553 131.888ZM352.058 132.95V127.033H353.155L353.263 127.916H353.323C353.482 127.629 353.728 127.387 354.062 127.188C354.396 126.989 354.782 126.89 355.219 126.89C355.943 126.89 356.488 127.108 356.854 127.546C357.22 127.983 357.403 128.627 357.403 129.478V132.95H356.138V129.634C356.138 129.14 356.035 128.759 355.828 128.488C355.621 128.218 355.295 128.083 354.85 128.083C354.412 128.083 354.046 128.23 353.752 128.524C353.466 128.818 353.323 129.244 353.323 129.801V132.95H352.058ZM361.323 133.093C360.854 133.093 360.46 133.014 360.142 132.855C359.824 132.688 359.585 132.469 359.426 132.199C359.267 131.92 359.188 131.618 359.188 131.292C359.188 130.711 359.398 130.258 359.82 129.932C360.249 129.606 360.854 129.443 361.633 129.443H363.161V129.311C363.161 128.421 362.747 127.975 361.92 127.975C361.578 127.975 361.287 128.051 361.049 128.202C360.818 128.345 360.663 128.58 360.584 128.906H359.319C359.383 128.285 359.649 127.796 360.118 127.438C360.595 127.072 361.196 126.89 361.92 126.89C362.795 126.89 363.431 127.104 363.829 127.534C364.226 127.963 364.425 128.556 364.425 129.311V132.95H363.351L363.244 132.079H363.161C362.986 132.358 362.767 132.596 362.504 132.795C362.242 132.994 361.848 133.093 361.323 133.093ZM361.562 132.032C362.079 132.032 362.465 131.876 362.719 131.566C362.982 131.248 363.125 130.846 363.149 130.361H361.765C361.311 130.361 360.989 130.437 360.798 130.588C360.615 130.731 360.524 130.934 360.524 131.196C360.524 131.459 360.615 131.666 360.798 131.817C360.989 131.96 361.244 132.032 361.562 132.032ZM366.246 132.95V131.853H368.226V125.852C368.226 125.589 368.099 125.458 367.845 125.458H366.413V124.36H368.071C368.533 124.36 368.882 124.484 369.121 124.73C369.368 124.969 369.491 125.319 369.491 125.78V131.853H371.483V132.95H366.246Z" fill="white"/>
<path d="M329.755 11.5938C352.967 11.5938 373.893 14.551 388.924 19.1572C396.456 21.4655 402.36 24.144 406.319 26.9658C410.36 29.846 411.844 32.4723 411.839 34.6035V183.278C411.839 183.787 411.706 184.286 411.454 184.728C411.202 185.169 410.838 185.537 410.4 185.795L329.808 232.543L249.082 185.795H249.083C248.645 185.537 248.281 185.169 248.029 184.728C247.777 184.286 247.644 183.787 247.644 183.278V34.6104C247.645 32.4763 249.137 29.8466 253.183 26.9658C257.148 24.1435 263.056 21.4654 270.59 19.1572C285.624 14.551 306.547 11.5938 329.755 11.5938Z" stroke="black" stroke-width="5.36872"/>
<g clip-path="url(#clip3_3192_323)">
<mask id="mask1_3192_323" style="mask-type:alpha" maskUnits="userSpaceOnUse" x="250" y="52" width="160" height="48">
<path d="M250.383 58.0819C250.383 54.7874 253.054 52.1167 256.349 52.1167H403.69C406.985 52.1167 409.656 54.7874 409.656 58.0819V99.8387H250.383V58.0819Z" fill="white"/>
</mask>
<g mask="url(#mask1_3192_323)">
<rect x="249.131" y="42.5723" width="162.255" height="73.3726" fill="#F16955"/>
<path d="M409.655 53.6079L249.131 100.137H409.655V53.6079Z" fill="#FF5F46"/>
</g>
<path d="M286.479 81.2781C286.652 80.862 287.241 80.862 287.414 81.2781L288.721 84.4198C288.794 84.5953 288.959 84.7151 289.148 84.7303L292.54 85.0022C292.989 85.0382 293.171 85.5989 292.829 85.8921L290.245 88.1057C290.101 88.2293 290.038 88.4233 290.082 88.6081L290.871 91.9179C290.976 92.3563 290.499 92.7027 290.114 92.4678L287.21 90.6942C287.048 90.5951 286.844 90.5951 286.682 90.6942L283.778 92.4678C283.394 92.7027 282.917 92.3563 283.021 91.9179L283.811 88.6081C283.855 88.4232 283.792 88.2293 283.648 88.1057L281.064 85.8921C280.721 85.5989 280.903 85.0382 281.353 85.0022L284.744 84.7303C284.934 84.7151 285.099 84.5953 285.172 84.4198L286.479 81.2781Z" fill="#1B3139"/>
<path d="M307.953 81.2781C308.126 80.862 308.716 80.862 308.889 81.2781L310.196 84.4198C310.269 84.5953 310.434 84.7151 310.623 84.7303L314.015 85.0022C314.464 85.0382 314.646 85.5989 314.304 85.8921L311.72 88.1057C311.575 88.2293 311.512 88.4233 311.557 88.6081L312.346 91.9179C312.451 92.3563 311.974 92.7027 311.589 92.4678L308.685 90.6942C308.523 90.5951 308.319 90.5951 308.157 90.6942L305.253 92.4678C304.869 92.7027 304.392 92.3563 304.496 91.9179L305.286 88.6081C305.33 88.4232 305.267 88.2293 305.123 88.1057L302.538 85.8921C302.196 85.5989 302.378 85.0382 302.828 85.0022L306.219 84.7303C306.409 84.7151 306.574 84.5953 306.647 84.4198L307.953 81.2781Z" fill="#1B3139"/>
<path d="M329.428 81.2781C329.601 80.862 330.191 80.862 330.364 81.2781L331.671 84.4198C331.744 84.5953 331.909 84.7151 332.098 84.7303L335.49 85.0022C335.939 85.0382 336.121 85.5989 335.779 85.8921L333.195 88.1057C333.051 88.2293 332.988 88.4233 333.032 88.6081L333.821 91.9179C333.926 92.3563 333.449 92.7027 333.064 92.4678L330.16 90.6942C329.998 90.5951 329.794 90.5951 329.632 90.6942L326.728 92.4678C326.344 92.7027 325.867 92.3563 325.971 91.9179L326.761 88.6081C326.805 88.4232 326.742 88.2293 326.598 88.1057L324.013 85.8921C323.671 85.5989 323.853 85.0382 324.303 85.0022L327.694 84.7303C327.884 84.7151 328.049 84.5953 328.122 84.4198L329.428 81.2781Z" fill="#1B3139"/>
<path d="M350.903 81.2781C351.076 80.862 351.666 80.862 351.839 81.2781L353.145 84.4198C353.218 84.5953 353.383 84.7151 353.573 84.7303L356.965 85.0022C357.414 85.0382 357.596 85.5989 357.254 85.8921L354.67 88.1057C354.525 88.2293 354.462 88.4233 354.506 88.6081L355.296 91.9179C355.4 92.3563 354.924 92.7027 354.539 92.4678L351.635 90.6942C351.473 90.5951 351.269 90.5951 351.107 90.6942L348.203 92.4678C347.818 92.7027 347.341 92.3563 347.446 91.9179L348.236 88.6081C348.28 88.4232 348.217 88.2293 348.072 88.1057L345.488 85.8921C345.146 85.5989 345.328 85.0382 345.777 85.0022L349.169 84.7303C349.358 84.7151 349.523 84.5953 349.596 84.4198L350.903 81.2781Z" fill="#1B3139"/>
<path d="M372.378 81.2781C372.551 80.862 373.141 80.862 373.314 81.2781L374.62 84.4198C374.693 84.5953 374.858 84.7151 375.048 84.7303L378.44 85.0022C378.889 85.0382 379.071 85.5989 378.729 85.8921L376.145 88.1057C376 88.2293 375.937 88.4233 375.981 88.6081L376.771 91.9179C376.875 92.3563 376.398 92.7027 376.014 92.4678L373.11 90.6942C372.948 90.5951 372.744 90.5951 372.582 90.6942L369.678 92.4678C369.293 92.7027 368.816 92.3563 368.921 91.9179L369.711 88.6081C369.755 88.4232 369.692 88.2293 369.547 88.1057L366.963 85.8921C366.621 85.5989 366.803 85.0382 367.252 85.0022L370.644 84.7303C370.833 84.7151 370.998 84.5953 371.071 84.4198L372.378 81.2781Z" fill="#1B3139"/>
<path d="M288.046 71.4675C287.012 71.4675 286.117 71.2438 285.362 70.7964C284.606 70.3391 284.024 69.7078 283.617 68.9025C283.219 68.0872 283.02 67.1477 283.02 66.0839C283.02 65.0201 283.219 64.0806 283.617 63.2653C284.024 62.4501 284.606 61.8138 285.362 61.3564C286.117 60.8991 287.012 60.6704 288.046 60.6704C289.319 60.6704 290.357 60.9836 291.163 61.61C291.968 62.2363 292.47 63.1212 292.669 64.2645H290.462C290.333 63.7077 290.064 63.2753 289.657 62.9671C289.249 62.6489 288.707 62.4898 288.031 62.4898C287.415 62.4898 286.883 62.639 286.435 62.9372C285.998 63.2255 285.66 63.6381 285.421 64.175C285.183 64.7019 285.063 65.3382 285.063 66.0839C285.063 66.8196 285.183 67.4559 285.421 67.9928C285.66 68.5296 285.998 68.9422 286.435 69.2306C286.883 69.5189 287.415 69.663 288.031 69.663C288.707 69.663 289.244 69.5189 289.642 69.2306C290.049 68.9323 290.323 68.5197 290.462 67.9928H292.669C292.47 69.0765 291.968 69.9265 291.163 70.5429C290.357 71.1593 289.319 71.4675 288.046 71.4675ZM297.207 71.2886V60.8494H304.067V62.4749H299.22V65.204H303.619V66.7699H299.22V69.663H304.067V71.2886H297.207ZM308.735 71.2886V60.8494H312.627C313.472 60.8494 314.168 60.9935 314.715 61.2819C315.262 61.5702 315.669 61.9579 315.938 62.4451C316.206 62.9223 316.34 63.4542 316.34 64.0408C316.34 64.5976 316.206 65.1195 315.938 65.6067C315.679 66.0839 315.277 66.4716 314.73 66.7699C314.183 67.0582 313.477 67.2024 312.612 67.2024H310.748V71.2886H308.735ZM314.148 71.2886L312.001 66.6953H314.178L316.445 71.2886H314.148ZM310.748 65.7409H312.508C313.114 65.7409 313.562 65.5918 313.85 65.2935C314.138 64.9952 314.282 64.6025 314.282 64.1154C314.282 63.6282 314.138 63.2454 313.85 62.9671C313.572 62.6787 313.124 62.5346 312.508 62.5346H310.748V65.7409ZM323.378 71.2886V62.4749H320.335V60.8494H328.433V62.4749H325.391V71.2886H323.378ZM332.694 71.2886V60.8494H334.707V71.2886H332.694ZM339.59 71.2886V60.8494H346.376V62.4749H341.604V65.2637H345.436V66.8445H341.604V71.2886H339.59ZM350.711 71.2886V60.8494H352.724V71.2886H350.711ZM357.607 71.2886V60.8494H364.467V62.4749H359.621V65.204H364.02V66.7699H359.621V69.663H364.467V71.2886H357.607ZM369.135 71.2886V60.8494H372.64C373.853 60.8494 374.852 61.0681 375.637 61.5056C376.433 61.9331 377.019 62.5395 377.397 63.325C377.785 64.1004 377.979 65.0151 377.979 66.069C377.979 67.1228 377.785 68.0425 377.397 68.8279C377.019 69.6034 376.433 70.2099 375.637 70.6473C374.852 71.0748 373.853 71.2886 372.64 71.2886H369.135ZM371.148 69.5587H372.535C373.39 69.5587 374.062 69.4195 374.549 69.1411C375.046 68.8627 375.399 68.465 375.608 67.948C375.816 67.4211 375.921 66.7948 375.921 66.069C375.921 65.3333 375.816 64.7069 375.608 64.1899C375.399 63.663 375.046 63.2603 374.549 62.982C374.062 62.7036 373.39 62.5644 372.535 62.5644H371.148V69.5587Z" fill="#1B3139"/>
</g>
<path d="M302.628 42.8264V41.7326C302.628 41.6922 302.615 41.6529 302.591 41.6202C302.567 41.5875 302.534 41.5629 302.496 41.5498C302.457 41.5366 302.416 41.5356 302.377 41.5468C302.338 41.558 302.304 41.5808 302.278 41.6123C301.873 42.0844 301.369 42.4614 300.802 42.7167C300.235 42.9719 299.619 43.099 298.997 43.089C298.329 43.0923 297.669 42.9569 297.057 42.6914C296.445 42.4259 295.895 42.0361 295.441 41.5466C294.491 40.4961 293.975 39.1238 293.997 37.7072C293.967 37.0248 294.072 36.3431 294.308 35.702C294.544 35.0608 294.905 34.473 295.37 33.973C295.836 33.473 296.396 33.0707 297.019 32.7897C297.641 32.5087 298.314 32.3546 298.997 32.3364C299.613 32.3197 300.226 32.4373 300.793 32.6809C301.359 32.9246 301.866 33.2885 302.278 33.7475C302.31 33.7706 302.348 33.7831 302.388 33.7831C302.427 33.7831 302.465 33.7706 302.497 33.7475C302.536 33.7339 302.569 33.7087 302.592 33.6754C302.616 33.6421 302.628 33.6023 302.628 33.5615V28.0923H304.893V42.7936L302.628 42.8264ZM302.727 37.7072C302.714 37.0741 302.514 36.4589 302.153 35.9388C301.792 35.4186 301.285 35.0167 300.697 34.7833C300.108 34.5499 299.464 34.4955 298.844 34.6269C298.225 34.7583 297.658 35.0697 297.214 35.5219C296.771 35.9742 296.471 36.5472 296.353 37.1692C296.234 37.7912 296.301 38.4344 296.546 39.0182C296.791 39.602 297.204 40.1005 297.731 40.451C298.258 40.8016 298.877 40.9886 299.511 40.9888C300.37 40.9716 301.188 40.6183 301.789 40.0047C302.39 39.3912 302.727 38.5663 302.727 37.7072V37.7072ZM314.76 42.8264V41.7326C314.775 41.6889 314.773 41.6412 314.755 41.5987C314.737 41.5563 314.703 41.5221 314.661 41.5029C314.629 41.4825 314.591 41.4718 314.552 41.4718C314.513 41.4718 314.475 41.4825 314.443 41.5029C314.041 41.9802 313.538 42.3622 312.97 42.6213C312.403 42.8805 311.785 43.0103 311.161 43.0015C309.807 42.8957 308.544 42.2833 307.622 41.2868C306.7 40.2902 306.188 38.9826 306.188 37.6252C306.188 36.2677 306.7 34.9602 307.622 33.9636C308.544 32.967 309.807 32.3547 311.161 32.2489C311.778 32.2233 312.392 32.3357 312.96 32.5779C313.528 32.8201 314.034 33.1861 314.443 33.649C314.469 33.6801 314.503 33.7029 314.542 33.7146C314.581 33.7263 314.623 33.7263 314.661 33.7147C314.699 33.6998 314.731 33.6743 314.755 33.6413C314.778 33.6082 314.791 33.5691 314.793 33.5287V32.5005H317.035V42.7389L314.76 42.8264ZM314.858 37.7072C314.845 37.0741 314.646 36.4589 314.285 35.9388C313.924 35.4186 313.417 35.0167 312.828 34.7833C312.239 34.5499 311.595 34.4955 310.975 34.6269C310.356 34.7583 309.789 35.0697 309.346 35.5219C308.903 35.9742 308.603 36.5472 308.484 37.1692C308.365 37.7912 308.432 38.4344 308.678 39.0182C308.923 39.602 309.335 40.1005 309.862 40.451C310.39 40.8016 311.009 40.9886 311.642 40.9888C312.499 40.9688 313.314 40.6142 313.913 40.001C314.512 39.3877 314.848 38.5644 314.847 37.7072H314.858ZM333.947 42.8264V41.7326C333.95 41.6928 333.939 41.6532 333.918 41.6197C333.896 41.5863 333.864 41.5606 333.827 41.5466C333.794 41.5263 333.756 41.5155 333.717 41.5155C333.679 41.5155 333.641 41.5263 333.608 41.5466C333.206 42.0233 332.703 42.4049 332.135 42.664C331.568 42.9232 330.95 43.0533 330.326 43.0452C328.973 42.9394 327.709 42.3271 326.787 41.3305C325.866 40.3339 325.354 39.0264 325.354 37.6689C325.354 36.3115 325.866 35.0039 326.787 34.0074C327.709 33.0108 328.973 32.3985 330.326 32.2927C330.943 32.2678 331.557 32.3806 332.125 32.6227C332.693 32.8649 333.199 33.2305 333.608 33.6928C333.634 33.7239 333.669 33.7467 333.707 33.7584C333.746 33.77 333.788 33.77 333.827 33.7584C333.863 33.7431 333.894 33.7171 333.915 33.684C333.937 33.6508 333.948 33.612 333.947 33.5725V32.5442H336.2V42.7827L333.947 42.8264ZM334.056 37.7072C334.043 37.0741 333.844 36.4589 333.483 35.9388C333.122 35.4186 332.615 35.0167 332.026 34.7833C331.438 34.5499 330.793 34.4955 330.174 34.6269C329.554 34.7583 328.987 35.0697 328.544 35.5219C328.101 35.9742 327.801 36.5472 327.682 37.1692C327.563 37.7912 327.631 38.4344 327.876 39.0182C328.121 39.602 328.533 40.1005 329.061 40.451C329.588 40.8016 330.207 40.9886 330.84 40.9888C331.697 40.9688 332.513 40.6142 333.111 40.001C333.71 39.3877 334.046 38.5644 334.045 37.7072H334.056ZM340.182 41.7982V42.8264H337.918V28.1251H340.182V33.6819C340.182 33.7226 340.195 33.7624 340.218 33.7957C340.242 33.829 340.275 33.8542 340.314 33.8678C340.347 33.886 340.385 33.8955 340.423 33.8955C340.461 33.8955 340.499 33.886 340.532 33.8678C340.937 33.3957 341.441 33.0186 342.008 32.7634C342.576 32.5082 343.192 32.3811 343.814 32.3911C344.48 32.387 345.14 32.521 345.752 32.7846C346.364 33.0482 346.915 33.4356 347.369 33.9225C348.318 34.9742 348.834 36.3458 348.813 37.7619C348.845 38.4452 348.741 39.1281 348.506 39.7705C348.271 40.4129 347.91 41.002 347.445 41.5032C346.979 42.0044 346.418 42.4077 345.795 42.6894C345.171 42.9711 344.498 43.1255 343.814 43.1437C343.196 43.1605 342.583 43.0419 342.016 42.7962C341.449 42.5506 340.942 42.1838 340.532 41.7217C340.492 41.6804 340.437 41.6568 340.379 41.656H340.314C340.279 41.6648 340.248 41.6826 340.223 41.7076C340.198 41.7326 340.18 41.7639 340.171 41.7982H340.182ZM343.3 41.0325C343.952 41.0456 344.592 40.8642 345.141 40.5117C345.689 40.1591 346.12 39.6513 346.378 39.0529C346.637 38.4546 346.711 37.7928 346.592 37.152C346.473 36.5111 346.166 35.9203 345.709 35.4548C345.253 34.9893 344.669 34.6701 344.03 34.5381C343.392 34.4061 342.729 34.4671 342.125 34.7134C341.522 34.9598 341.005 35.3802 340.642 35.9212C340.278 36.4622 340.084 37.0992 340.084 37.751C340.084 38.6082 340.419 39.4315 341.018 40.0447C341.617 40.658 342.432 41.0125 343.289 41.0325H343.3ZM355.333 34.6882C355.515 34.6692 355.698 34.6692 355.88 34.6882V32.3692C355.753 32.3549 355.624 32.3549 355.497 32.3692C354.93 32.3629 354.371 32.5037 353.874 32.7778C353.378 33.052 352.961 33.4501 352.664 33.9334C352.642 33.9697 352.608 33.9978 352.569 34.0135C352.53 34.0293 352.486 34.0319 352.445 34.021C352.405 34.0093 352.369 33.9849 352.343 33.9514C352.318 33.9179 352.303 33.8771 352.303 33.835V32.5771H350.06V42.8155H352.325V38.3307C352.303 36.0336 353.451 34.6882 355.311 34.6882H355.333ZM357.302 32.588V42.8264H359.588V32.588H357.302ZM358.396 28.1251C358.121 28.1251 357.852 28.2066 357.624 28.3592C357.396 28.5119 357.218 28.7288 357.112 28.9827C357.007 29.2365 356.98 29.5158 357.033 29.7853C357.087 30.0548 357.219 30.3023 357.414 30.4966C357.608 30.6909 357.855 30.8232 358.125 30.8768C358.394 30.9304 358.674 30.9029 358.928 30.7977C359.181 30.6926 359.398 30.5145 359.551 30.2861C359.704 30.0576 359.785 29.789 359.785 29.5143C359.785 29.1496 359.642 28.7995 359.386 28.5396C359.13 28.2797 358.782 28.1308 358.418 28.1251H358.396ZM366.283 32.3364C365.568 32.3075 364.854 32.4263 364.187 32.6854C363.52 32.9444 362.914 33.3383 362.405 33.8423C361.897 34.3463 361.499 34.9496 361.234 35.6146C360.97 36.2796 360.845 36.9919 360.868 37.7072C360.84 38.4223 360.961 39.1355 361.222 39.8017C361.484 40.4679 361.88 41.0729 362.387 41.5784C362.893 42.0839 363.499 42.4791 364.166 42.7391C364.833 42.9991 365.546 43.1182 366.261 43.089C367.807 43.1017 369.301 42.536 370.451 41.5029L369.16 40.1465C368.403 40.703 367.496 41.0193 366.556 41.0544C365.686 41.0544 364.851 40.7087 364.236 40.0933C363.62 39.4778 363.275 38.6432 363.275 37.7729C363.275 36.9025 363.62 36.0679 364.236 35.4524C364.851 34.837 365.686 34.4913 366.556 34.4913C367.487 34.5013 368.387 34.8207 369.116 35.3992L370.451 33.9553C369.32 32.9023 367.828 32.3229 366.283 32.3364V32.3364ZM374.378 38.3088C374.42 38.2918 374.467 38.2918 374.509 38.3088V38.3088C374.563 38.3143 374.613 38.3374 374.651 38.3745L378.272 42.8702H381.062L376.38 37.1275C376.347 37.0914 376.33 37.0446 376.33 36.9962C376.33 36.9478 376.347 36.9011 376.38 36.865L380.69 32.5552H377.933L374.214 36.2852C374.183 36.3059 374.147 36.317 374.11 36.317C374.073 36.317 374.037 36.3059 374.006 36.2852C373.97 36.2699 373.939 36.2439 373.917 36.2108C373.896 36.1776 373.885 36.1387 373.886 36.0993V28.0485H371.621V42.7499H373.886V38.7683C373.886 38.7106 373.91 38.6555 373.951 38.6151L374.378 38.3088ZM384.759 43.089C385.223 43.1308 385.69 43.0781 386.132 42.9339C386.575 42.7898 386.983 42.5572 387.333 42.2503C387.683 41.9434 387.967 41.5686 388.168 41.1487C388.368 40.7287 388.481 40.2724 388.5 39.8074C388.5 38.4073 387.625 37.4338 385.82 36.8431L384.584 36.4384C383.753 36.1649 383.359 35.7711 383.359 35.2351C383.359 34.6991 383.906 34.1413 384.704 34.1413C385.107 34.1732 385.492 34.3158 385.818 34.5533C386.145 34.7907 386.399 35.1138 386.553 35.4867L388.369 34.5132C388.027 33.84 387.501 33.2774 386.853 32.8903C386.204 32.5032 385.459 32.3074 384.704 32.3255C384.268 32.285 383.828 32.3342 383.411 32.47C382.994 32.6058 382.609 32.8254 382.28 33.1153C381.952 33.4053 381.685 33.7594 381.498 34.1559C381.311 34.5524 381.207 34.9829 381.193 35.4211C381.193 36.8431 382.046 37.8057 383.786 38.3526L385.043 38.7573C385.94 39.0417 386.301 39.3918 386.301 39.9715C386.301 40.8466 385.492 41.1529 384.803 41.1529C384.332 41.1346 383.877 40.976 383.497 40.6972C383.117 40.4185 382.829 40.0324 382.67 39.5886L380.843 40.5512C381.155 41.3258 381.699 41.9851 382.4 42.4392C383.101 42.8934 383.924 43.1203 384.759 43.089V43.089ZM323.27 42.9796C323.845 42.9799 324.419 42.9397 324.988 42.8593V40.9013C324.625 40.9479 324.26 40.9735 323.894 40.9778C322.975 40.9778 322.275 40.8247 322.275 38.7901V34.5898C322.275 34.5394 322.294 34.4909 322.329 34.4543C322.363 34.4176 322.411 34.3957 322.461 34.3929H324.649V32.5442H322.461C322.411 32.5414 322.363 32.5195 322.329 32.4829C322.294 32.4462 322.275 32.3977 322.275 32.3474V29.4705H320.022V32.4349C320.022 32.4607 320.016 32.4863 320.007 32.5102C319.997 32.5341 319.982 32.5558 319.964 32.5741C319.946 32.5924 319.924 32.6069 319.9 32.6168C319.876 32.6267 319.851 32.6318 319.825 32.6318H318.249V34.4804H319.825C319.851 34.4804 319.876 34.4855 319.9 34.4954C319.924 34.5053 319.946 34.5198 319.964 34.538C319.982 34.5563 319.997 34.578 320.007 34.6019C320.016 34.6258 320.022 34.6514 320.022 34.6773V39.4464C319.978 42.9796 322.319 42.9796 323.27 42.9796ZM287.992 34.7101L280.335 39.0089L272.163 34.4147L271.78 34.6226V37.9697L280.335 42.7827L287.992 38.4839V40.2559L280.335 44.5547L272.163 39.9606L271.78 40.1793V40.7481L280.335 45.5611L288.889 40.7481V37.4009L288.506 37.1822L280.335 41.7763L272.677 37.4775V35.7164L280.335 40.0043L288.889 35.1914V31.9098L288.462 31.6692L280.335 36.2415L273.093 32.1614L280.335 28.0923L286.296 31.4395L286.832 31.1441V30.7394L280.335 27.0859L271.78 31.8989V32.4239L280.335 37.2369L287.992 32.938V34.7101Z" fill="white"/>
</g>
</g>
<defs>
<clipPath id="clip0_3192_323">
<rect width="462" height="236" fill="white"/>
</clipPath>
<clipPath id="clip1_3192_323">
<rect width="170" height="227" fill="white" transform="translate(245 9)"/>
</clipPath>
<clipPath id="clip2_3192_323">
<rect width="79.7616" height="79.209" fill="white" transform="translate(329.666 144.022)"/>
</clipPath>
<clipPath id="clip3_3192_323">
<rect width="159.133" height="47.6778" fill="white" transform="translate(250.383 52.1167)"/>
</clipPath>
</defs>
</svg>
